<svg width="24" height="24" viewBox="0 0 24 24" fill="none" xmlns="http://www.w3.org/2000/svg">
<path d="M24 11.9775C24.0045 18.584 18.5831 24.0067 11.9761 24C5.41522 23.9944 -0.00393293 18.5632 2.14171e-06 11.991C0.00393721 5.41877 5.42141 0.00168673 11.993 3.93857e-07C18.5645 -0.00168595 23.9961 5.41203 24 11.9775Z" fill="#209F84"/>
<path d="M17.1846 10.2894C15.8065 11.5821 14.4245 12.8727 13.0388 14.1612C12.4834 14.6789 11.9309 15.1999 11.3681 15.7113C10.949 16.092 10.5612 16.0984 10.1465 15.7173C9.18268 14.8311 8.23066 13.9349 7.27227 13.0424C7.00705 12.7956 6.92077 12.5127 7.07961 12.1914C7.21099 11.9264 7.461 11.8117 7.73847 11.7929C8.03506 11.8025 8.23115 11.9355 8.41351 12.1078C8.9776 12.6398 9.54577 13.1681 10.118 13.6927C10.6156 14.1497 10.8921 14.1538 11.3843 13.6968C12.9592 12.2344 14.533 10.7702 16.1057 9.30407C16.4949 8.94303 16.9317 8.90419 17.2572 9.18388C17.6023 9.47956 17.5807 9.91783 17.1846 10.2894Z" fill="white"/>
</svg>
