<svg width="170" height="170" viewBox="0 0 170 170" fill="none" xmlns="http://www.w3.org/2000/svg">
<g clip-path="url(#clip0)">
<g clip-path="url(#clip1)">
<path d="M101.265 124.746C99.9731 124.635 97.2736 123.269 96.7139 122.621C93.0071 118.326 85.5202 110.721 85.6278 104.726C85.6278 103.7 90.1742 102.553 90.7942 101.587C93.5065 100.153 94.5355 99.8222 96.4427 97.1984C102.074 89.4429 87.8321 75.9846 103.456 70.3419C114.887 66.2108 124.853 69.7579 122.808 51.8765C120.763 33.9951 133.572 0.645646 153.144 12.3261C164.367 19.0295 153.974 34.7809 160.084 45.7915C165.892 56.2566 161.733 65.2618 150.612 72.1884C139.491 79.1151 145.807 83.783 149.57 93.7973C154.091 105.821 135.363 108.827 126.58 109.476C119.515 109.987 101.885 116.067 101.265 124.746Z" fill="url(#paint0_linear)"/>
<g style="mix-blend-mode:soft-light">
<g style="mix-blend-mode:soft-light">
<path d="M91.3543 114.182L91.2251 113.942C128.384 93.806 149.536 53.8605 147.81 7.09143H148.085C148.903 29.2585 144.387 50.7042 135.019 69.1095C125.172 88.4467 110.074 104.039 91.3543 114.182Z" fill="#65C1B0"/>
</g>
<g style="mix-blend-mode:soft-light">
<path d="M152.02 98.577C140.883 95.4679 122.512 96.1808 111.073 100.166L110.982 99.9082C122.469 95.9059 140.909 95.1845 152.094 98.315L152.02 98.577Z" fill="#65C1B0"/>
</g>
<g style="mix-blend-mode:soft-light">
<path d="M98.5906 110.146L98.3969 109.952C102.883 105.538 104.958 99.0364 104.566 90.6282C104.282 84.4573 102.702 77.4232 99.8693 69.7193L100.128 69.6248C102.969 77.3545 104.553 84.4186 104.863 90.6153C105.247 99.1051 103.146 105.68 98.5906 110.146Z" fill="#65C1B0"/>
</g>
<g style="mix-blend-mode:soft-light">
<path d="M136.245 66.4341L136.043 66.2494C144.068 57.4977 156.252 54.715 165.061 53.9205L165.087 54.1954C156.325 54.9855 144.227 57.751 136.245 66.4341Z" fill="#65C1B0"/>
</g>
<g style="mix-blend-mode:soft-light">
<path d="M145.14 40.7801H144.869C145.243 27.4248 137.046 16.0364 132.125 10.4366L132.332 10.2563C137.278 15.8818 145.519 27.3347 145.14 40.7801Z" fill="#65C1B0"/>
</g>
</g>
<path d="M114.203 140.884C112.885 141.567 109.424 141.906 108.481 141.623C102.23 139.733 90.2912 136.959 86.6705 131.093C86.0548 130.093 89.7402 126.189 89.7229 124.884C91.4451 121.826 92.2588 120.873 92.4869 117.154C93.1543 106.178 71.0465 101.875 82.6838 86.8104C91.2126 75.7741 103.065 73.0687 90.0286 56.9995C76.9922 40.9303 68.8078 0.718558 94.984 0.0142953C110.005 -0.389368 109.669 21.271 122.396 28.1848C134.494 34.7551 136.031 46.0447 129.543 59.5846C123.055 73.1245 132.048 73.7558 141.89 81.1763C153.7 90.0612 137.4 104.503 129.297 110.515C122.775 115.355 109.441 132.089 114.203 140.884Z" fill="url(#paint1_linear)"/>
<g style="mix-blend-mode:soft-light">
<g style="mix-blend-mode:soft-light">
<path d="M98.0656 136.736L97.7901 136.586C121.366 94.2181 117.164 42.4891 86.5963 -1.78497L86.8589 -1.96533C101.351 19.0208 110.224 42.5836 112.523 66.185C114.951 90.9974 109.944 115.393 98.0656 136.736Z" fill="#FCFDFE"/>
</g>
<g style="mix-blend-mode:soft-light">
<path d="M147.241 84.3197C134.523 88.1545 117.155 100.14 108.532 111.039L108.282 110.841C116.944 99.9037 134.376 87.8711 147.15 84.0191L147.241 84.3197Z" fill="#FCFDFE"/>
</g>
<g style="mix-blend-mode:soft-light">
<path d="M102.599 128.366L102.294 128.298C103.912 121.263 101.906 113.697 96.3264 105.765C92.2364 99.9638 86.3553 94.115 78.8512 88.3907L79.0449 88.1417C86.5749 93.8874 92.4774 99.7362 96.5847 105.585C102.216 113.577 104.24 121.251 102.599 128.366Z" fill="#FCFDFE"/>
</g>
<g style="mix-blend-mode:soft-light">
<path d="M112.071 62.8483L111.761 62.7925C114.129 49.3772 124.22 39.1739 132.267 33.0031L132.461 33.2521C124.457 39.4015 114.421 49.5361 112.071 62.8483Z" fill="#FCFDFE"/>
</g>
<g style="mix-blend-mode:soft-light">
<path d="M104.838 32.5136L104.567 32.6767C96.6794 19.5019 81.6927 13.5028 73.4609 11.098L73.5513 10.7974C81.8261 13.2108 96.8947 19.2485 104.838 32.5136Z" fill="#FCFDFE"/>
</g>
</g>
<path d="M5.56675 130.509C2.50568 130.698 0 128.71 0 126.095V31.7276C0 29.1124 2.50568 27.0898 5.56675 27.2057H5.99728L147.159 37.5764C149.407 37.6752 151.224 35.3305 151.224 37.555V117.815C151.212 118.91 150.787 119.96 150.034 120.756C149.281 121.552 148.254 122.035 147.159 122.109L6.87861 130.483H5.86382L5.56675 130.509Z" fill="#156858"/>
<path d="M9.37226 127.734C6.36838 127.915 3.93063 126.005 3.93063 123.493V32.8454C3.93063 30.3332 6.36838 28.3903 9.37226 28.5017L148.32 34.3964C149.388 34.4478 150.396 34.8951 151.137 35.647C151.879 36.399 152.299 37.399 152.312 38.443V115.54C152.3 116.592 151.882 117.6 151.142 118.365C150.402 119.129 149.394 119.594 148.32 119.665L9.37226 127.734Z" fill="#ECEEF3"/>
<g style="mix-blend-mode:multiply" opacity="0.3">
<path d="M148.43 35.2317L6.84132 29.4216C5.201 29.3529 3.87497 30.4307 3.87497 31.8307V125.974C3.87497 127.37 5.20531 128.426 6.84563 128.336L148.434 120.224C149.019 120.186 149.569 119.93 149.973 119.505C150.377 119.081 150.605 118.52 150.612 117.935V37.4819C150.606 36.8995 150.377 36.3416 149.971 35.923C149.565 35.5044 149.013 35.257 148.43 35.2317Z" fill="#D8DEE8"/>
</g>
<path d="M6.83674 120.297C6.69897 120.316 6.55884 120.306 6.42498 120.269C6.29111 120.231 6.16633 120.167 6.05828 120.08C5.95023 119.992 5.86121 119.884 5.79666 119.761C5.73211 119.638 5.69341 119.504 5.68292 119.365V31.8994C5.6935 31.7608 5.73219 31.6258 5.79663 31.5026C5.86107 31.3794 5.94993 31.2705 6.05782 31.1826C6.16571 31.0947 6.29038 31.0295 6.42427 30.991C6.55817 30.9526 6.69849 30.9417 6.83674 30.9589L148.429 36.5415C148.655 36.551 148.868 36.6445 149.028 36.8036C149.187 36.9626 149.281 37.1756 149.29 37.4004V112.426C149.287 112.656 149.197 112.875 149.037 113.041C148.877 113.206 148.659 113.304 148.429 113.315L6.83674 120.297Z" fill="#F0F0F0"/>
<g style="mix-blend-mode:multiply" opacity="0.4">
<path d="M133.816 114.75C122.125 107.548 130.288 87.0783 117.161 76.7928C103.929 66.4231 85.3058 79.1401 76.0322 68.4003C69.1288 60.4075 77.2067 50.753 70.6159 43.2313C60.2777 31.4524 33.8173 47.6568 21.6624 36.0378C19.9344 34.3887 18.1938 31.8857 17.2052 27.8725L9.37226 27.5191C6.36838 27.4055 3.93063 29.3869 3.93063 31.9488V124.392C3.93063 126.954 6.38528 128.898 9.38916 128.717L148.32 120.488C149.394 120.415 150.402 119.942 151.142 119.162C151.882 118.383 152.3 117.354 152.312 116.282V114.885C143.085 117.998 137.436 116.984 133.816 114.75Z" fill="#EDFFDF"/>
</g>
<g style="mix-blend-mode:soft-light">
<path d="M14.7025 113.16L48.7789 111.743V93.9218L14.7025 94.7463V113.16Z" fill="#F4F7FA"/>
</g>
<g style="mix-blend-mode:soft-light">
<g style="mix-blend-mode:soft-light" opacity="0.7">
<g style="mix-blend-mode:soft-light" opacity="0.7">
<path d="M105.996 82.4731L111.176 82.4044V69.6976L105.996 69.5688V82.4731Z" fill="#F4F7FA"/>
</g>
<g style="mix-blend-mode:soft-light" opacity="0.7">
<path d="M96.6535 82.6019L101.932 82.5289V63.4709L96.6535 63.4365V82.6019Z" fill="#F4F7FA"/>
</g>
<g style="mix-blend-mode:soft-light" opacity="0.7">
<path d="M87.1263 82.7351L92.5079 82.6578V53.6756L87.1263 53.5167V82.7351Z" fill="#F4F7FA"/>
</g>
<g style="mix-blend-mode:soft-light" opacity="0.7">
<path d="M77.4129 82.8682L82.8979 82.7909V60.9588L77.4129 60.8342V82.8682Z" fill="#F4F7FA"/>
</g>
<g style="mix-blend-mode:soft-light" opacity="0.7">
<path d="M67.5029 83.0056L73.0997 82.9283V73.1116L67.5029 73.133V83.0056Z" fill="#F4F7FA"/>
</g>
<g style="mix-blend-mode:soft-light" opacity="0.7">
<path d="M57.3932 83.143L63.1063 83.0657V59.7649L57.3932 59.7134V83.143Z" fill="#F4F7FA"/>
</g>
<g style="mix-blend-mode:soft-light" opacity="0.7">
<path d="M47.082 83.2847L52.907 83.2031V49.2868L47.082 49.1709V83.2847Z" fill="#F4F7FA"/>
</g>
<g style="mix-blend-mode:soft-light" opacity="0.7">
<path d="M36.5558 83.4307L42.5014 83.3491V58.3607L36.5558 58.2963V83.4307Z" fill="#F4F7FA"/>
</g>
<g style="mix-blend-mode:soft-light" opacity="0.7">
<path d="M25.8138 83.5768L31.8842 83.4952V44.3356L25.8138 44.1896V83.5768Z" fill="#F4F7FA"/>
</g>
<g style="mix-blend-mode:soft-light" opacity="0.7">
<path d="M14.8445 83.7271L21.0398 83.6412V39.6634L14.8445 39.4874V83.7271Z" fill="#F4F7FA"/>
</g>
</g>
</g>
<g style="mix-blend-mode:soft-light">
<path d="M115.929 108.947L141.399 107.887V105.314L115.929 106.306V108.947Z" fill="#F4F7FA"/>
</g>
<g style="mix-blend-mode:soft-light">
<path d="M115.929 74.8509L141.399 74.7006V72.1283L115.929 72.2099V74.8509Z" fill="#F4F7FA"/>
</g>
<g style="mix-blend-mode:soft-light">
<path d="M115.929 70.329L141.399 70.299V67.7267L115.929 67.688V70.329Z" fill="#F4F7FA"/>
</g>
<g style="mix-blend-mode:soft-light">
<path d="M115.929 105.297L120.079 105.138V101.089L115.929 101.226V105.297Z" fill="#F4F7FA"/>
</g>
<g style="mix-blend-mode:soft-light">
<g style="mix-blend-mode:soft-light">
<path d="M24.0583 101.926C26.211 102.008 26.5468 100.758 28.6779 100.638C32.2944 100.432 33.177 103.94 36.6642 103.889C39.5057 103.846 40.2204 101.475 43.0361 101.742C45.1285 101.935 45.5418 103.326 47.5825 103.524C47.9811 103.563 48.3832 103.553 48.7794 103.494V111.73L14.6986 113.147V98.5853C16.1158 98.6673 17.5082 98.9928 18.8145 99.5473C21.0963 100.552 21.8755 101.862 24.0583 101.926Z" fill="#F4F7FA"/>
</g>
</g>
<g style="mix-blend-mode:soft-light">
<path d="M14.8445 92.7236L111.176 90.5765V86.5485L14.8445 88.2919V92.7236Z" fill="#F4F7FA"/>
</g>
<g style="mix-blend-mode:soft-light">
<path d="M52.9081 111.571L111.176 109.145V92.1353L52.9081 93.5267V111.571Z" fill="#F4F7FA"/>
</g>
<g opacity="0.74">
<path opacity="0.9" d="M128.264 54.5991C130.373 54.5991 132.083 52.8937 132.083 50.79C132.083 48.6864 130.373 46.981 128.264 46.981C126.155 46.981 124.445 48.6864 124.445 50.79C124.445 52.8937 126.155 54.5991 128.264 54.5991Z" fill="#1C9B83"/>
<path opacity="0.9" d="M120.949 63.5097C120.949 61.5735 121.72 59.7167 123.093 58.3476C124.465 56.9785 126.327 56.2094 128.268 56.2094C130.209 56.2094 132.071 56.9785 133.443 58.3476C134.816 59.7167 135.587 61.5735 135.587 63.5097H120.949Z" fill="#1C9B83"/>
</g>
<path d="M47.8702 152.088C47.8702 152.088 52.1454 154.257 52.2143 154.6C52.2832 154.944 49.4632 154.484 48.3137 154.536C47.1642 154.587 46.217 154.205 46.3203 153.677C46.4236 153.149 46.8283 151.766 46.8283 151.766L47.8702 152.088Z" fill="url(#paint2_linear)"/>
<path d="M48.0255 150.327L47.7629 152.474C47.5826 152.548 47.3884 152.582 47.1937 152.574C46.9991 152.566 46.8084 152.516 46.6349 152.427L46.4412 150.074L48.0255 150.327Z" fill="url(#paint3_linear)"/>
<path d="M27.8895 150.379L27.3901 151.272C27.25 151.526 27.2101 151.823 27.2782 152.105C27.4504 152.844 27.7991 154.287 27.9498 154.682C28.1565 155.193 30.9248 155.498 30.9248 155.498C30.9248 155.498 31.1702 155.111 30.5933 154.639C30.0163 154.166 29.6504 154.098 29.448 153.406C29.2776 152.534 29.1654 151.652 29.1122 150.765L27.8895 150.379Z" fill="url(#paint4_linear)"/>
<path d="M29.9564 148.116C29.7756 148.279 28.8887 151.289 28.8887 151.289C28.8887 151.289 28.6003 151.697 28.0535 151.092L27.8081 150.821L27.9071 147.862L29.9564 148.116Z" fill="url(#paint5_linear)"/>
<path d="M50.3717 107.196C50.5999 113.598 50.6085 120.555 50.277 127.988C49.9067 136.362 49.1576 144.096 48.2148 151.109C47.866 151.109 47.4958 151.109 47.1126 151.109C46.8543 151.109 46.6003 151.087 46.3592 151.066C45.7347 149.213 45.2059 147.33 44.7748 145.423C44.2811 143.24 43.9117 141.031 43.6684 138.806C42.8461 131.553 43.8104 130.917 43.1431 125.541C42.549 120.783 41.7095 120.594 40.7192 113.834C39.6472 106.5 40.4437 105.4 40.8355 105.001C42.4887 103.309 46.3721 104.464 50.3717 107.196Z" fill="#606060"/>
<path d="M40.8397 105.001C42.4154 103.391 46.006 104.365 49.8248 106.83C45.4463 112.104 44.9685 115.526 45.4937 117.746C46.0835 120.259 47.8875 120.98 47.8831 123.724C47.8831 127.099 45.145 127.993 45.2009 131.561C45.2397 133.919 46.4409 133.893 46.725 136.809C47.0608 140.244 45.4937 141.447 45.9974 143.997C46.217 145.097 46.8585 146.531 48.615 148.008C48.4859 149.056 48.3567 150.091 48.219 151.109C47.8702 151.109 47.5 151.109 47.1168 151.109C46.8585 151.109 46.6045 151.087 46.3634 151.066C45.7369 149.213 45.2066 147.33 44.7747 145.423C44.281 143.24 43.9116 141.03 43.6683 138.806C42.8459 131.553 43.8103 130.917 43.143 125.541C42.5489 120.782 41.7093 120.594 40.7191 113.834C39.6514 106.5 40.4694 105.4 40.8397 105.001Z" fill="#606060"/>
<path d="M47.664 107.08C43.1877 114.395 39.349 122.08 36.1904 130.05C33.7072 136.317 31.6348 142.739 29.9864 149.275C29.5991 149.478 29.1581 149.554 28.725 149.494C28.1578 149.396 27.648 149.089 27.2956 148.635C26.8098 145.255 26.7 141.832 26.9684 138.428C27.1402 135.833 27.5729 133.262 28.26 130.754C29.3019 127.009 30.0166 126.799 31.3727 122.835C32.7849 118.726 32.4404 117.682 33.7923 112.555C34.5998 109.487 35.6065 106.474 36.806 103.537L47.664 107.08Z" fill="#606060"/>
<path d="M48.6501 80.3561C52.8133 77.6464 54.6 77.9556 55.8055 75.5207C57.011 73.0859 56.9981 69.2897 55.0219 67.2628C54.8756 67.1168 53.373 65.6224 51.3366 65.8758C48.254 66.2666 48.0301 70.1443 44.573 71.9221C41.6497 73.4294 38.4552 72.3516 36.2939 71.6516C31.0931 69.9339 30.3224 66.6616 27.623 67.1812C24.2434 67.834 23.9463 73.2534 20.5796 73.5883C18.3279 73.8116 17.794 71.4412 14.8363 70.8056C11.3576 70.0455 7.54311 72.3 5.40338 75.0398C1.49416 80.0469 2.52313 87.519 4.97285 92.0795C6.98342 95.8284 11.3016 100.14 14.9439 99.2123C17.8199 98.4823 18.7541 94.8665 21.2297 95.2229C22.9905 95.4806 23.0508 97.3701 25.1303 98.3663C28.5444 99.9767 32.7592 96.9063 33.9131 96.0689C37.1894 93.6813 36.6685 92.1568 40.892 87.3687C43.1324 84.6769 45.7445 82.3158 48.6501 80.3561Z" fill="#606060"/>
<path d="M78.4861 69.8094C78.4861 69.8094 79.1878 68.826 79.6356 68.0916C80.0833 67.3573 82.1671 65.3132 82.1671 65.3132C82.1671 65.3132 82.3221 65.6396 81.8743 66.1721C81.4266 66.7046 80.4837 67.5849 80.699 67.9628C80.9142 68.3407 81.5299 68.6714 81.0865 69.3842C80.643 70.0971 79.881 69.6118 79.4892 70.183C79.0974 70.7541 78.6927 71.3768 78.6927 71.3768L78.4861 69.8094Z" fill="url(#paint6_linear)"/>
<path d="M78.2107 69.1695L79.6358 71.57C78.9682 73.7527 78.0142 75.8377 76.7986 77.771C75.1815 80.3223 73.0938 82.5446 70.6463 84.3197C65.9406 87.6607 57.3774 90.7612 54.8674 87.2227C52.6286 84.0492 56.2408 77.0195 56.9081 75.7569C58.8934 76.8038 61.0717 77.4364 63.3101 77.6164C65.366 77.8039 67.4386 77.5656 69.3978 76.9164C74.4565 75.1815 77.2636 70.8099 78.2107 69.1695Z" fill="url(#paint7_linear)"/>
<path d="M62.3923 79.8966C62.1556 81.0818 58.4573 80.4463 57.6953 82.602C57.2863 83.7572 58.1559 84.4915 58.1904 86.4669C58.2334 88.6656 57.1829 89.9023 56.3778 91.62C55.1982 94.1494 55.1939 96.6315 55.1853 101.591C55.1853 108.651 56.7395 110.073 55.4005 112.327C53.6784 115.29 49.4851 115.479 48.3571 115.531C44.4823 115.707 44.0518 113.658 39.8498 113.414C35.0623 113.134 34.3821 115.728 30.9594 114.625C27.8337 113.611 26.7832 110.923 24.3507 111.481C22.8267 111.829 22.422 113.066 20.9883 112.933C19.5546 112.799 18.0564 111.369 17.9746 109.927C17.8497 108.11 19.8388 105.821 22.9601 105.817C24.7303 106.559 26.6938 106.71 28.557 106.246C32.3026 105.22 34.2486 101.669 36.4142 97.7222C37.9124 94.9953 40.6635 89.9925 40.6936 83.4008C40.6936 80.6868 40.2631 79.8923 40.9132 78.4452C43.0659 73.7214 51.4181 74.4386 52.107 74.5073C57.7814 75.057 62.6808 78.4666 62.3923 79.8966Z" fill="url(#paint8_linear)"/>
<path d="M64.2608 85.8228L53.7688 86.2779C53.7102 86.2835 53.6545 86.3065 53.6092 86.344C53.5639 86.3816 53.531 86.4319 53.5148 86.4884L48.5723 101.776C48.4991 101.995 48.723 102.545 48.9297 102.519L59.3011 100.947C59.3556 100.939 59.4068 100.916 59.4487 100.88C59.4905 100.845 59.5215 100.798 59.5379 100.745L64.6784 86.4669C64.7516 86.2651 64.4632 85.8142 64.2608 85.8228Z" fill="#156858"/>
<path d="M64.4199 86.1963L53.9322 86.6558C53.8737 86.6598 53.8179 86.6818 53.7724 86.7187C53.727 86.7556 53.694 86.8056 53.6782 86.8619L48.7357 102.15C48.7141 102.197 48.7053 102.25 48.7101 102.302C48.7148 102.354 48.733 102.405 48.7629 102.448C48.7928 102.491 48.8333 102.526 48.8806 102.549C48.9278 102.572 48.9803 102.582 49.0328 102.579L59.4645 101.329C59.5188 101.322 59.5698 101.299 59.6111 101.263C59.6524 101.227 59.6823 101.18 59.697 101.128L64.6954 86.6343C64.7158 86.5876 64.7244 86.5367 64.7205 86.4859C64.7167 86.4351 64.7005 86.386 64.6733 86.3429C64.6462 86.2998 64.609 86.2639 64.5648 86.2383C64.5206 86.2128 64.4709 86.1984 64.4199 86.1963Z" fill="#D8DEE8"/>
<path d="M61.5662 86.7674L61.9709 85.5478C61.9803 85.5236 61.984 85.4975 61.9816 85.4716C61.9792 85.4457 61.9707 85.4207 61.9569 85.3986C61.9432 85.3765 61.9244 85.3579 61.9022 85.3443C61.8799 85.3307 61.8548 85.3225 61.8288 85.3203H58.01C57.9762 85.3215 57.9439 85.334 57.9181 85.3558C57.8923 85.3777 57.8747 85.4075 57.8679 85.4405L57.4848 86.7846C57.4761 86.8089 57.4731 86.8349 57.4762 86.8606C57.4792 86.8863 57.4882 86.9109 57.5024 86.9325C57.5166 86.9541 57.5356 86.9722 57.5579 86.9852C57.5802 86.9983 57.6053 87.0061 57.6311 87.0079L61.4284 86.8748C61.4597 86.8734 61.4898 86.8623 61.5145 86.8431C61.5392 86.8238 61.5573 86.7974 61.5662 86.7674Z" fill="#156858"/>
<g style="mix-blend-mode:multiply" opacity="0.4">
<path d="M55.1083 98.8687C55.7886 96.4081 54.6778 94.802 55.8144 92.8868C57.4332 90.1771 60.9119 91.3237 61.9925 89.1379C62.2853 88.5496 62.423 87.6735 62.0312 86.3036L64.4336 86.1963C64.4835 86.1989 64.5321 86.2133 64.5753 86.2383C64.6185 86.2634 64.6551 86.2984 64.682 86.3404C64.709 86.3824 64.7255 86.4301 64.7302 86.4798C64.7349 86.5294 64.7277 86.5794 64.7091 86.6257L59.7107 101.119C59.696 101.172 59.6661 101.219 59.6248 101.255C59.5835 101.29 59.5325 101.313 59.4782 101.321L53.1365 102.081C54.0752 101.21 54.757 100.099 55.1083 98.8687Z" fill="#D8DEE8"/>
</g>
<path d="M47.4363 97.0394C47.4363 97.0394 49.0207 96.6873 49.632 96.2578C50.2434 95.8284 50.8935 95.1413 51.7847 95.1757C52.6759 95.21 53.5929 95.7253 53.1753 95.8456C52.7577 95.9658 51.9827 96.8805 51.3886 97.2455C50.7945 97.6106 49.4383 97.6406 49.1843 97.6191C48.9303 97.5977 47.9315 98.2719 47.9315 98.2719L47.4363 97.0394Z" fill="url(#paint9_linear)"/>
<path style="mix-blend-mode:multiply" opacity="0.3" d="M22.9387 105.826C24.7089 106.568 26.6724 106.718 28.5356 106.255C32.2812 105.229 34.2272 101.677 36.3928 97.7308C37.891 95.0039 40.6421 90.0011 40.6722 83.4094C40.6722 80.6954 40.2417 79.9009 40.8918 78.4538C40.9951 78.2271 41.1161 78.0089 41.2534 77.801C42.8895 79.0335 43.5223 80.2702 43.7075 81.3524C44.1595 83.9891 42.0327 86.1491 43.1392 88.4251C44.1983 90.6023 46.8202 90.0011 47.367 91.8605C47.9568 93.8745 45.055 95.0898 44.9302 98.2075C44.7752 101.943 48.8049 103.79 48.0989 106.276C47.4875 108.424 44.1122 108.286 44.1165 109.45C44.1165 110.828 44.0131 107.977 48.0989 106.276C49.3388 105.761 55.1682 110.051 55.8742 109.282C56.0292 110.498 56.0034 111.335 55.4136 112.331C53.6914 115.294 49.4981 115.483 48.3701 115.535C44.4953 115.711 44.0648 113.663 39.8628 113.418C35.0753 113.139 34.3951 115.732 30.9724 114.629C27.8467 113.615 26.7962 110.927 24.3637 111.485C22.8397 111.833 22.435 113.07 21.0013 112.937C19.5676 112.804 18.0694 111.374 17.9876 109.931C17.8283 108.119 19.8044 105.83 22.9387 105.826Z" fill="url(#paint10_linear)"/>
<path d="M47.4746 96.3052L48.9384 99.2081C48.1893 99.6375 40.147 103.859 34.3219 99.6633C32.662 98.5307 31.3835 96.9247 30.6538 95.0555C29.5172 92.0753 30.1544 89.3055 30.5677 87.5104C31.5923 83.0573 34.4898 78.3851 38.6014 76.5085C40.1728 75.7913 42.0456 75.4306 43.7677 75.0871C45.2574 74.7994 47.5952 74.4429 47.6425 74.6963C47.6683 74.8165 47.1259 74.9754 46.747 75.2116C44.4308 76.676 47.3713 82.7094 44.6503 85.6038C42.0413 88.3779 38.6573 87.9184 38.1106 90.4349C37.9669 91.3606 38.1446 92.3076 38.6143 93.1188C39.9446 95.7383 43.4578 96.9064 47.4746 96.3052Z" fill="url(#paint11_linear)"/>
<path d="M52.9557 70.1702C52.9557 70.1702 52.0128 73.2277 50.8331 73.7087C49.6535 74.1896 47.8194 74.7307 47.5654 74.9411C47.3114 75.1515 53.8124 77.5177 57.4461 76.4227C56.4128 75.9159 56.1545 75.7527 56.1545 75.7527C55.6837 75.4983 55.2493 75.182 54.8629 74.8123C54.3183 74.2636 53.8984 73.6046 53.6316 72.8799L53.9717 71.1407L52.9557 70.1702Z" fill="url(#paint12_linear)"/>
<path d="M52.5247 71.5056C52.5247 71.5056 53.0715 72.8626 54.3717 72.6522C55.5341 72.4675 55.4739 69.2167 54.686 68.6542C54.5064 68.5499 54.3055 68.4873 54.0983 68.471C53.8912 68.4546 53.683 68.485 53.4891 68.5597C53.1563 68.7616 52.8911 69.0576 52.7271 69.41C52.5631 69.7624 52.5076 70.1555 52.5678 70.5394C52.3095 70.3891 52.0555 70.4105 51.9694 70.5394C51.8832 70.6682 52.0382 71.0289 52.077 71.0976C52.1781 71.2783 52.3352 71.4214 52.5247 71.5056Z" fill="url(#paint13_linear)"/>
<g style="mix-blend-mode:multiply" opacity="0.3">
<path d="M79.0192 83.6971C76.5896 87.3415 75.2817 91.6151 75.2564 95.9916L73.8184 126.764H79.8458L79.0192 83.6971Z" fill="#BFC8D6"/>
</g>
<path d="M152.292 82.6836L148.714 82.6192L145.438 82.5591L137.068 82.4045L133.723 82.3401L128.062 82.237L124.648 82.1726L106.522 81.8377L102.945 81.7733L85.1251 81.4426L83.5321 81.4125C80.4969 81.3567 77.9352 83.5597 77.9352 86.2951V140.051C77.9352 142.804 80.4753 144.908 83.5106 144.775L85.1638 144.689V144.912L85.237 144.68L109.902 143.151L152.245 140.575C154.828 140.45 157.062 139.132 157.062 136.611V87.3258C157.062 84.8136 154.884 82.7309 152.292 82.6836ZM140.155 85.2946C140.927 85.3076 141.681 85.5238 142.342 85.9212C143.003 86.3186 143.547 86.8832 143.918 87.5577C144.225 88.1328 144.386 88.7741 144.387 89.4257C144.388 90.1333 144.196 90.8278 143.832 91.4354C143.518 91.957 143.093 92.4036 142.587 92.7441C142.081 93.0846 141.507 93.3107 140.905 93.4065C140.657 93.4463 140.406 93.4664 140.155 93.4666C139.041 93.477 137.968 93.0493 137.168 92.2761C136.368 91.5029 135.905 90.4465 135.88 89.3355C135.89 88.7885 136.008 88.2489 136.229 87.7483C136.45 87.2476 136.769 86.7959 137.167 86.4196C137.565 86.0433 138.035 85.75 138.548 85.5568C139.061 85.3637 139.607 85.2745 140.155 85.2946ZM119.167 84.9725C119.43 84.9763 119.692 85.0022 119.951 85.0498C120.606 85.1638 121.227 85.4213 121.771 85.8037C122.314 86.1861 122.766 86.6839 123.093 87.2614C123.426 87.8546 123.601 88.5227 123.602 89.2024C123.602 89.9172 123.405 90.6184 123.033 91.2293C122.7 91.775 122.251 92.2412 121.718 92.5951C121.184 92.949 120.58 93.182 119.946 93.2776C119.688 93.3173 119.428 93.3374 119.167 93.3378C116.7 93.3378 114.69 91.4311 114.69 89.1079C114.69 86.7847 116.7 84.9339 119.167 84.9725ZM97.1541 84.6333C97.4328 84.6385 97.7106 84.6658 97.985 84.7148C98.6722 84.83 99.3252 85.0958 99.897 85.4931C100.469 85.8903 100.945 86.4092 101.291 87.0123C101.63 87.6096 101.808 88.2842 101.808 88.9705C101.809 89.7169 101.597 90.4481 101.197 91.079C100.84 91.6311 100.368 92.1007 99.8144 92.4562C99.2605 92.8117 98.6367 93.0449 97.985 93.1402C97.7107 93.1878 97.4325 93.2093 97.1541 93.2046C94.5709 93.2046 92.457 91.2465 92.457 88.8674C92.457 86.4884 94.5666 84.5946 97.1541 84.6333Z" fill="#156858"/>
<path d="M153.699 82.7094L148.67 82.602L145.415 82.5419L137.059 82.3916L133.718 82.3272L128.056 82.2198L124.647 82.1597L106.521 81.8205L102.944 81.7561L93.7517 81.5843L90.0707 81.5156L85.3349 81.4297H85.1368C84.0041 81.4287 82.8967 81.7635 81.9552 82.3916H81.9337C81.3567 82.7723 80.8704 83.2745 80.5089 83.8629C80.1474 84.4512 79.9195 85.1114 79.8413 85.797C79.8413 85.8915 79.7208 85.9902 79.7165 86.089C79.7122 86.1878 79.6088 86.1878 79.6088 86.235V98.5982L91.4398 98.2676L156.88 96.4296L158.331 96.391V87.3C158.323 86.0797 157.832 84.9121 156.964 84.0521C156.096 83.192 154.922 82.7094 153.699 82.7094ZM145.889 89.4428C145.889 89.688 145.864 89.9325 145.816 90.1729C145.622 91.1207 145.101 91.9706 144.343 92.5742C143.585 93.1777 142.639 93.4966 141.67 93.4752C141.419 93.4721 141.168 93.4491 140.921 93.4065C139.951 93.2494 139.068 92.7572 138.426 92.0161C137.784 91.275 137.423 90.3321 137.407 89.3526C137.418 88.3794 137.778 87.4422 138.423 86.7116C139.068 85.981 139.954 85.5055 140.921 85.3718C141.168 85.3293 141.419 85.3106 141.67 85.316C142.785 85.3294 143.852 85.7708 144.649 86.5485C145.036 86.925 145.344 87.375 145.554 87.8722C145.764 88.3693 145.872 88.9034 145.872 89.4428H145.889ZM125.172 89.2195C125.172 89.4558 125.151 89.6915 125.107 89.9238C124.904 90.9173 124.356 91.8072 123.558 92.436C122.761 93.0647 121.766 93.3918 120.75 93.3592C120.486 93.358 120.223 93.335 119.962 93.2905C119.235 93.1708 118.548 92.8727 117.964 92.423C117.38 91.9733 116.917 91.386 116.617 90.7139C116.333 90.067 116.229 89.356 116.314 88.6551C116.4 87.9541 116.673 87.2889 117.104 86.7288C117.805 85.8232 118.831 85.2244 119.967 85.0584C120.226 85.018 120.488 84.9993 120.75 85.0025C121.9 85.0164 123.004 85.4574 123.846 86.2393C124.257 86.6204 124.585 87.0815 124.81 87.5941C125.035 88.1067 125.152 88.6599 125.155 89.2195H125.172ZM103.456 88.9876C103.456 89.2458 103.43 89.5034 103.378 89.7563C102.987 91.736 101.097 93.2261 98.8191 93.2132C98.5448 93.2131 98.271 93.1887 98.0011 93.1402C95.8054 92.7752 94.1263 90.9931 94.1263 88.8889C94.1263 86.7847 95.7968 85.024 98.0011 84.7148C98.2715 84.6722 98.5453 84.6535 98.8191 84.659C100.032 84.67 101.198 85.129 102.091 85.9473C102.514 86.3335 102.853 86.8031 103.085 87.3265C103.317 87.8498 103.437 88.4154 103.439 88.9876H103.456Z" fill="url(#paint14_linear)"/>
<path d="M158.301 96.0604V136.551C158.303 136.785 158.287 137.019 158.254 137.251C158.069 138.354 157.511 139.36 156.673 140.103C155.835 140.846 154.767 141.281 153.647 141.335L109.931 143.482L85.2449 144.783L85.2018 144.899H85.1674C82.4335 144.899 80.1259 143.182 79.7513 140.807C79.6762 140.525 79.6215 140.238 79.5877 139.948V95.8156L90.6954 95.85L156.842 96.0561L158.301 96.0604Z" fill="white"/>
<path d="M131.105 103.112C131.108 102.968 131.082 102.826 131.028 102.692C130.974 102.559 130.894 102.438 130.793 102.337C130.691 102.235 130.57 102.155 130.436 102.102C130.303 102.048 130.16 102.022 130.016 102.025L123.274 102.055C122.628 102.055 121.823 102.558 121.823 103.167V109.317C121.823 109.927 122.658 110.408 123.304 110.399L129.861 110.313C130.17 110.318 130.47 110.206 130.701 110C130.932 109.794 131.076 109.508 131.105 109.201V103.112Z" fill="#BFC8D6"/>
<path d="M142.815 103.056C142.806 102.763 142.681 102.486 142.468 102.285C142.256 102.084 141.972 101.975 141.678 101.982L135.414 102.008C135.269 102.007 135.126 102.034 134.991 102.089C134.857 102.143 134.735 102.224 134.632 102.326C134.529 102.427 134.448 102.548 134.392 102.682C134.336 102.815 134.308 102.958 134.308 103.103V109.171C134.306 109.314 134.333 109.456 134.388 109.589C134.443 109.721 134.524 109.841 134.627 109.942C134.729 110.042 134.851 110.121 134.985 110.173C135.119 110.225 135.262 110.249 135.406 110.244L141.7 110.163C141.992 110.162 142.273 110.047 142.481 109.842C142.69 109.637 142.809 109.359 142.815 109.068V103.056Z" fill="#BFC8D6"/>
<path d="M154.452 103C154.439 102.711 154.313 102.438 154.1 102.241C153.888 102.043 153.606 101.936 153.316 101.944L147.146 101.965C146.852 101.959 146.567 102.068 146.353 102.269C146.138 102.469 146.01 102.745 145.997 103.039V109.025C146 109.168 146.032 109.31 146.09 109.441C146.149 109.573 146.232 109.691 146.337 109.79C146.441 109.889 146.564 109.967 146.699 110.018C146.833 110.069 146.977 110.094 147.121 110.09L153.307 110.008C153.6 110.01 153.882 109.899 154.095 109.699C154.308 109.5 154.436 109.226 154.452 108.935V103Z" fill="#BFC8D6"/>
<path d="M131.105 114.251C131.109 114.108 131.083 113.966 131.029 113.833C130.976 113.7 130.895 113.58 130.793 113.479C130.691 113.378 130.57 113.3 130.436 113.248C130.302 113.196 130.159 113.172 130.016 113.177L123.274 113.285C122.628 113.285 121.823 113.804 121.823 114.414V120.563C121.823 121.173 122.658 121.646 123.304 121.633L129.861 121.465C130.171 121.465 130.47 121.349 130.7 121.141C130.93 120.934 131.074 120.648 131.105 120.34V114.251Z" fill="#BFC8D6"/>
<path d="M142.815 114.049C142.811 113.905 142.779 113.763 142.719 113.631C142.66 113.5 142.575 113.382 142.469 113.283C142.363 113.185 142.239 113.109 142.103 113.059C141.967 113.009 141.823 112.986 141.678 112.993L135.414 113.096C135.12 113.097 134.839 113.214 134.632 113.422C134.424 113.629 134.308 113.911 134.308 114.204V120.272C134.306 120.414 134.333 120.556 134.388 120.687C134.443 120.819 134.525 120.938 134.627 121.037C134.73 121.136 134.852 121.213 134.986 121.263C135.12 121.313 135.263 121.335 135.406 121.328L141.7 121.169C141.993 121.164 142.273 121.045 142.481 120.839C142.689 120.632 142.808 120.354 142.815 120.061V114.049Z" fill="url(#paint15_linear)"/>
<path d="M154.452 113.852C154.44 113.563 154.314 113.29 154.101 113.094C153.888 112.898 153.606 112.793 153.316 112.804L147.146 112.903C146.851 112.901 146.567 113.013 146.353 113.216C146.139 113.418 146.011 113.695 145.997 113.989V119.962C146 120.106 146.031 120.247 146.089 120.378C146.148 120.509 146.232 120.627 146.336 120.725C146.441 120.823 146.564 120.899 146.699 120.949C146.834 120.998 146.977 121.021 147.121 121.014L153.307 120.86C153.601 120.856 153.882 120.741 154.095 120.539C154.307 120.337 154.435 120.062 154.452 119.769V113.852Z" fill="#BFC8D6"/>
<path d="M94.0451 114.899C94.0198 114.581 93.8703 114.286 93.6288 114.076C93.3873 113.866 93.0731 113.76 92.7535 113.779L85.7876 113.886C85.6308 113.882 85.4748 113.909 85.3285 113.965C85.1823 114.022 85.0487 114.107 84.9354 114.215C84.8222 114.323 84.7315 114.452 84.6686 114.596C84.6058 114.739 84.572 114.893 84.5692 115.05V121.457C84.5677 121.611 84.598 121.763 84.6582 121.904C84.7185 122.046 84.8074 122.173 84.9193 122.279C85.0313 122.385 85.1639 122.466 85.3088 122.518C85.4538 122.57 85.608 122.592 85.7617 122.582L92.7923 122.406C93.1118 122.411 93.4209 122.293 93.6551 122.076C93.8893 121.859 94.0306 121.56 94.0494 121.242L94.0451 114.899Z" fill="#BFC8D6"/>
<path d="M106.723 114.672C106.724 114.522 106.694 114.374 106.636 114.236C106.577 114.099 106.491 113.975 106.383 113.871C106.274 113.768 106.146 113.688 106.005 113.636C105.865 113.584 105.715 113.561 105.565 113.568L98.6467 113.68C98.3187 113.667 97.9982 113.78 97.7503 113.994C97.5024 114.209 97.3457 114.509 97.312 114.835V121.156C97.312 121.779 97.9923 122.273 98.6725 122.256L105.505 122.079C105.818 122.081 106.119 121.962 106.346 121.748C106.573 121.533 106.708 121.24 106.723 120.929V114.672Z" fill="#BFC8D6"/>
<path d="M118.956 114.474C118.955 114.327 118.925 114.18 118.867 114.045C118.809 113.909 118.723 113.786 118.617 113.684C118.51 113.582 118.383 113.502 118.245 113.45C118.106 113.397 117.959 113.373 117.811 113.379L110.991 113.487C110.328 113.487 109.613 114.006 109.613 114.625V120.86C109.613 121.474 110.345 121.959 111.008 121.942L117.712 121.779C118.024 121.781 118.326 121.665 118.557 121.455C118.787 121.245 118.93 120.956 118.956 120.645V114.474Z" fill="#BFC8D6"/>
<path d="M131.105 125.39C131.109 125.248 131.084 125.106 131.031 124.973C130.977 124.841 130.897 124.721 130.794 124.621C130.692 124.522 130.57 124.444 130.436 124.394C130.302 124.344 130.159 124.322 130.016 124.33L123.274 124.519C122.628 124.519 121.823 125.051 121.823 125.661V131.81C121.823 132.42 122.658 132.888 123.304 132.862L129.861 132.618C130.171 132.608 130.467 132.488 130.695 132.279C130.924 132.07 131.069 131.787 131.105 131.48V125.39Z" fill="#BFC8D6"/>
<path d="M142.815 125.042C142.812 124.899 142.78 124.757 142.72 124.626C142.661 124.495 142.575 124.377 142.469 124.28C142.363 124.182 142.238 124.107 142.103 124.059C141.967 124.011 141.822 123.99 141.678 123.999L135.414 124.179C135.12 124.185 134.839 124.305 134.632 124.515C134.425 124.724 134.309 125.006 134.308 125.3V131.368C134.305 131.51 134.332 131.651 134.387 131.783C134.442 131.914 134.523 132.032 134.627 132.13C134.73 132.229 134.852 132.304 134.987 132.353C135.121 132.401 135.263 132.421 135.406 132.411L141.7 132.175C141.994 132.166 142.273 132.044 142.481 131.836C142.688 131.627 142.808 131.348 142.815 131.054V125.042Z" fill="#BFC8D6"/>
<path d="M94.0452 126.498C94.0199 126.181 93.8698 125.887 93.6277 125.681C93.3857 125.474 93.0714 125.371 92.7536 125.395L85.7876 125.592C85.4701 125.589 85.164 125.71 84.9359 125.931C84.7077 126.151 84.576 126.452 84.5692 126.769V133.176C84.5675 133.329 84.5978 133.48 84.6582 133.621C84.7186 133.762 84.8078 133.888 84.9201 133.993C85.0323 134.097 85.1652 134.177 85.3101 134.227C85.455 134.277 85.6089 134.296 85.7618 134.284L92.7923 134.022C93.1131 134.021 93.4217 133.899 93.6552 133.68C93.8888 133.46 94.0298 133.16 94.0495 132.841L94.0452 126.498Z" fill="#BFC8D6"/>
<path d="M106.724 126.112C106.725 125.963 106.695 125.815 106.636 125.679C106.577 125.542 106.491 125.419 106.382 125.317C106.274 125.215 106.145 125.136 106.004 125.086C105.864 125.036 105.715 125.015 105.566 125.025L98.6471 125.223C98.315 125.215 97.9923 125.333 97.7428 125.551C97.4932 125.77 97.3351 126.074 97.2996 126.404V132.725C97.2996 133.352 97.9798 133.833 98.66 133.807L105.493 133.549C105.806 133.545 106.107 133.422 106.333 133.206C106.56 132.989 106.695 132.694 106.711 132.381L106.724 126.112Z" fill="#BFC8D6"/>
<path d="M118.956 125.764C118.956 125.617 118.926 125.471 118.868 125.335C118.81 125.2 118.724 125.078 118.617 124.977C118.51 124.875 118.383 124.797 118.244 124.746C118.106 124.696 117.958 124.674 117.811 124.682L110.991 124.875C110.328 124.875 109.613 125.408 109.613 126.026V132.261C109.613 132.88 110.345 133.356 111.008 133.331L117.712 133.081C118.025 133.079 118.326 132.961 118.557 132.749C118.787 132.536 118.929 132.246 118.956 131.935V125.764Z" fill="#BFC8D6"/>
<path d="M98.3675 73.1804C94.0234 73.0601 90.4242 76.5471 90.0755 81.5328L93.7522 81.6015C94.0493 78.6255 96.0469 76.3839 98.3675 76.4483C100.873 76.5085 102.978 79.2654 102.978 82.4861C102.978 85.7068 100.873 88.3993 98.3675 88.3736C97.6927 88.3332 97.0367 88.1359 96.4521 87.7973C95.8675 87.4588 95.3704 86.9884 95.0007 86.4239C94.5542 86.9924 94.2684 87.6698 94.173 88.3857C94.0777 89.1015 94.1761 89.8298 94.4583 90.4949C95.635 91.2169 96.986 91.6072 98.3675 91.6243C102.892 91.6587 106.548 87.5963 106.548 82.5505C106.548 77.5047 102.897 73.3049 98.3675 73.1804Z" fill="#B1BBCC"/>
<path d="M120.282 73.7773C116.144 73.6613 112.709 77.071 112.377 81.9364L115.882 82.0008C116.166 79.0936 118.069 76.9035 120.282 76.9593C122.671 77.0152 124.682 79.7077 124.682 82.8554C124.682 86.0031 122.671 88.614 120.282 88.614C119.038 88.614 117.892 87.8582 117.074 86.7117C116.646 87.271 116.373 87.9329 116.282 88.6309C116.191 89.3289 116.286 90.0384 116.558 90.6882C117.673 91.3923 118.962 91.773 120.282 91.7875C124.587 91.8219 128.083 87.854 128.083 82.9241C128.083 77.9943 124.6 73.8975 120.282 73.7773Z" fill="#B1BBCC"/>
<path d="M141.257 74.3699C137.309 74.2583 134.033 77.5906 133.718 82.3444L137.059 82.4045C137.331 79.566 139.147 77.4274 141.257 77.4747C143.534 77.5305 145.45 80.1629 145.45 83.2333C145.45 86.3037 143.534 88.876 141.257 88.8502C140.069 88.8502 138.975 88.1159 138.196 86.9908C137.787 87.5422 137.527 88.1893 137.441 88.8699C137.355 89.5505 137.446 90.2418 137.705 90.8771C138.763 91.5637 139.995 91.936 141.257 91.9507C145.373 91.9808 148.697 88.0859 148.697 83.2934C148.697 78.501 145.373 74.4859 141.257 74.3699Z" fill="#B1BBCC"/>
<g style="mix-blend-mode:multiply" opacity="0.3">
<path d="M158.302 134.898V136.551C158.304 136.785 158.288 137.019 158.255 137.251C158.079 138.349 157.531 139.354 156.701 140.097C155.872 140.84 154.813 141.277 153.7 141.335L109.945 143.482L85.2454 144.783C85.2195 144.783 85.1937 144.899 85.1722 144.899C82.4555 144.899 80.1393 143.16 79.7561 140.807C79.681 140.525 79.6263 140.238 79.5925 139.948V86.2608C79.5925 86.2136 79.7001 86.1621 79.7001 86.1148C79.7001 86.0676 79.7647 85.9173 79.7733 85.8228C79.8504 85.1323 80.078 84.467 80.4402 83.8735C80.8024 83.28 81.2904 82.7728 81.87 82.3874H81.926C84.6986 83.2935 88.2505 85.8915 90.0673 93.0587C90.3113 94.0263 90.5567 94.951 90.8035 95.8328C91.0403 96.6917 91.2814 97.499 91.5225 98.2762C94.3339 107.2 97.9029 110.987 108.378 110.425C116.089 109.995 122.004 110.163 125.732 113.229L125.913 113.379C127.355 114.664 128.433 116.305 129.039 118.137C129.422 119.212 129.71 120.319 129.9 121.444L129.926 121.577C130.3 123.823 131.954 125.214 134.321 126.193L134.377 126.215C136.698 127.164 139.703 127.726 142.829 128.328H142.923C147.956 129.294 153.489 130.367 156.924 133.369C157.215 133.624 157.491 133.895 157.751 134.181C157.936 134.434 158.302 134.662 158.302 134.898Z" fill="#BFC8D6"/>
</g>
<g style="mix-blend-mode:multiply" opacity="0.3">
<path d="M158.301 136.354V136.551C158.303 136.785 158.287 137.019 158.254 137.251C158.078 138.349 157.53 139.354 156.7 140.097C155.871 140.84 154.812 141.277 153.699 141.335L109.944 143.482C109.944 143.353 109.922 143.22 109.914 143.087C109.875 142.55 109.858 142.009 109.853 141.464C109.846 138.697 110.306 135.949 111.214 133.335C112.336 130.129 114.135 127.2 116.488 124.746C118.054 123.107 119.858 121.712 121.839 120.607C124.079 119.368 126.523 118.537 129.055 118.155C129.731 118.051 130.42 117.983 131.117 117.944C131.483 117.923 131.854 117.914 132.224 117.914C132.396 117.914 133.447 117.914 134.321 117.914H135.517C136.296 117.945 137.072 118.018 137.842 118.133C140.718 118.32 143.527 119.079 146.104 120.366C146.5 120.559 146.888 120.77 147.267 120.989C152.282 123.936 156.018 128.638 157.75 134.181C157.957 134.915 158.301 135.628 158.301 136.354Z" fill="#BFC8D6"/>
</g>
<path d="M158.229 141.339C158.255 154.115 151.448 164.529 139.329 164.881C139.139 164.881 136.048 164.881 135.859 164.881C123.477 164.911 113.415 154.42 113.385 141.451C113.355 128.482 123.373 117.944 135.772 117.914C136.061 117.914 138.786 117.94 139.066 117.948C151.03 118.395 158.199 128.676 158.229 141.339Z" fill="#156858"/>
<path d="M140 165.087C152.384 165.087 162.422 154.574 162.422 141.606C162.422 128.637 152.384 118.124 140 118.124C127.617 118.124 117.578 128.637 117.578 141.606C117.578 154.574 127.617 165.087 140 165.087Z" fill="url(#paint16_linear)"/>
<path style="mix-blend-mode:multiply" opacity="0.3" d="M139.999 164.498C152.069 164.498 161.853 154.249 161.853 141.606C161.853 128.962 152.069 118.713 139.999 118.713C127.93 118.713 118.146 128.962 118.146 141.606C118.146 154.249 127.93 164.498 139.999 164.498Z" fill="url(#paint17_linear)"/>
<path d="M140 163.807C151.705 163.807 161.195 153.867 161.195 141.606C161.195 129.344 151.705 119.404 140 119.404C128.294 119.404 118.805 129.344 118.805 141.606C118.805 153.867 128.294 163.807 140 163.807Z" fill="url(#paint18_linear)"/>
<path d="M139.543 163.33C150.999 163.33 160.286 153.604 160.286 141.606C160.286 129.607 150.999 119.881 139.543 119.881C128.087 119.881 118.8 129.607 118.8 141.606C118.8 153.604 128.087 163.33 139.543 163.33Z" fill="url(#paint19_linear)"/>
<path d="M141.735 141.004L157.536 147.115C158.064 145.341 158.331 143.499 158.328 141.648C158.328 131.845 150.979 123.84 141.735 123.346V141.004Z" fill="url(#paint20_linear)"/>
<g style="mix-blend-mode:multiply" opacity="0.54">
<g style="mix-blend-mode:multiply" opacity="0.54">
<path d="M134.325 141.112C132.684 135.812 138.63 131.991 137.678 125.811C137.248 123.088 135.659 120.855 133.687 119.065C124.349 121.92 117.538 130.96 117.564 141.661C117.594 154.63 127.656 165.117 140.038 165.087C142.988 165.084 145.905 164.472 148.605 163.287C148.222 155.794 145.914 151.56 143.465 149.009C139.702 145.08 135.586 145.153 134.325 141.112Z" fill="#D8DEE8"/>
</g>
</g>
<path d="M139.488 143.328C140.215 143.328 140.805 142.709 140.805 141.945C140.805 141.181 140.215 140.562 139.488 140.562C138.76 140.562 138.17 141.181 138.17 141.945C138.17 142.709 138.76 143.328 139.488 143.328Z" fill="#156858"/>
<path d="M139.492 130.939C139.268 130.945 139.056 131.039 138.9 131.199C138.744 131.359 138.657 131.574 138.657 131.797V141.107C138.649 141.222 138.664 141.336 138.702 141.444C138.74 141.552 138.8 141.651 138.879 141.735C138.957 141.819 139.051 141.885 139.157 141.931C139.262 141.977 139.375 142 139.49 142C139.605 142 139.718 141.977 139.823 141.931C139.929 141.885 140.023 141.819 140.101 141.735C140.18 141.651 140.24 141.552 140.278 141.444C140.316 141.336 140.331 141.222 140.323 141.107V131.81C140.327 131.585 140.241 131.368 140.086 131.205C139.931 131.042 139.717 130.946 139.492 130.939Z" fill="#156858"/>
<path d="M139.397 142.151C139.355 142.101 139.304 142.06 139.247 142.031C139.189 142.002 139.125 141.985 139.061 141.981C138.996 141.977 138.931 141.987 138.871 142.01C138.81 142.032 138.754 142.067 138.708 142.112L127.484 152.869C127.386 152.961 127.328 153.087 127.32 153.22C127.313 153.354 127.358 153.485 127.445 153.587C127.486 153.636 127.537 153.677 127.595 153.706C127.653 153.735 127.716 153.753 127.78 153.757C127.845 153.761 127.909 153.751 127.97 153.73C128.031 153.708 128.087 153.674 128.134 153.629L139.358 142.894C139.459 142.799 139.52 142.669 139.527 142.53C139.534 142.392 139.488 142.256 139.397 142.151Z" fill="#156858"/>
<path d="M41.4599 30.6842C42.9754 31.4528 44.9042 30.7443 45.7179 29.1082C46.5316 27.472 45.9977 25.5181 44.4779 24.7495C44.4005 24.7065 44.3187 24.6765 44.2412 24.6421C44.5196 23.7468 44.7325 22.8326 44.8783 21.9066C44.9644 21.9066 45.0506 21.9066 45.141 21.9066C46.0056 21.8041 46.8007 21.3831 47.3702 20.7261C47.9397 20.069 48.2425 19.2235 48.2193 18.3553C48.2279 17.9419 48.1494 17.5313 47.9889 17.1501C47.8284 16.7688 47.5895 16.4254 47.2876 16.1421C46.9856 15.8588 46.6275 15.6418 46.2362 15.5052C45.8449 15.3687 45.4293 15.3155 45.0161 15.3493C44.9257 15.3493 44.8396 15.3493 44.7492 15.3879C44.5713 14.4996 44.3237 13.6266 44.0087 12.777C44.0862 12.7298 44.168 12.6825 44.2455 12.6267C44.9589 12.1329 45.4623 11.3916 45.6573 10.5476C45.8523 9.70356 45.725 8.81733 45.3003 8.06186C45.0846 7.71093 44.7977 7.4089 44.458 7.17518C44.1183 6.94147 43.7333 6.78124 43.3279 6.70479C42.9224 6.62835 42.5053 6.63739 42.1036 6.73133C41.7018 6.82527 41.3242 7.00203 40.995 7.25024C40.9204 7.30232 40.8485 7.35822 40.7797 7.41772C40.189 6.76874 39.5453 6.16977 38.8552 5.627C38.9076 5.54843 38.9551 5.46668 38.9973 5.38223C39.8325 3.74611 40.9218 1.9468 39.3934 1.20818C35.8544 -0.509532 34.3347 0.963408 33.4994 2.59953C33.4564 2.68542 33.4219 2.7713 33.3832 2.85719C32.5374 2.62204 31.6733 2.45828 30.8 2.36764C30.8 2.27316 30.8 2.18298 30.8 2.0928C30.7656 0.306382 31.3037 -0.672715 29.5644 -0.707069C25.7757 -0.780072 24.4971 0.864639 24.5401 2.66824C24.5401 2.75842 24.5401 2.85289 24.5616 2.94307C23.6878 3.19272 22.8343 3.50855 22.0086 3.88782C21.9713 3.80691 21.9296 3.72806 21.8837 3.65163C21.668 3.30088 21.3811 2.99895 21.0416 2.7652C20.702 2.53145 20.3173 2.37103 19.9119 2.29421C19.5066 2.2174 19.0897 2.22589 18.6879 2.31914C18.286 2.41239 17.9081 2.58834 17.5784 2.83572C16.865 3.32952 16.3616 4.07077 16.1666 4.91481C15.9716 5.75884 16.0989 6.64508 16.5236 7.40054C16.5684 7.47474 16.6173 7.54642 16.67 7.61526C16.006 8.28574 15.3916 9.00333 14.8317 9.7624C14.7587 9.71301 14.6824 9.66853 14.6035 9.62928C13.088 8.8606 11.1808 9.56916 10.3455 11.2053C9.5103 12.8414 10.0657 14.7953 11.5855 15.564C11.663 15.6069 11.7448 15.637 11.8222 15.6713C11.5475 16.5612 11.3375 17.4696 11.1937 18.3896C11.1076 18.3896 11.0215 18.3896 10.9311 18.3896C10.0695 18.494 9.27771 18.9146 8.71019 19.5696C8.14267 20.2246 7.84006 21.067 7.86137 21.9324C7.85276 22.3458 7.93124 22.7564 8.09173 23.1376C8.25222 23.5189 8.49115 23.8622 8.79306 24.1456C9.09498 24.4289 9.45315 24.6459 9.84443 24.7824C10.2357 24.919 10.6514 24.9722 11.0645 24.9384C11.1549 24.9384 11.241 24.9169 11.3314 24.8998C11.5062 25.7842 11.748 26.6542 12.0547 27.5021C11.9772 27.5493 11.8954 27.5966 11.8179 27.6524C11.1045 28.1462 10.6011 28.8875 10.4061 29.7315C10.2111 30.5755 10.3384 31.4618 10.7631 32.2172C11.6586 33.6987 14.6379 34.3901 16.1103 33.3552C16.1835 33.3037 15.2148 32.9258 15.2837 32.8614C15.8774 33.512 16.5255 34.1111 17.2211 34.6521C17.1687 34.7307 17.1212 34.8124 17.079 34.8969C16.2438 36.533 16.7992 38.4869 18.3146 39.2556C19.8301 40.0242 21.7589 39.32 22.5769 37.6796C22.6199 37.5937 22.6544 37.5078 22.6931 37.4219C23.5389 37.657 24.403 37.8208 25.2763 37.9114C25.2763 38.0059 25.2763 38.0961 25.2763 38.1863C25.2677 38.5997 25.3462 39.0103 25.5067 39.3915C25.6672 39.7727 25.9061 40.1161 26.208 40.3994C26.5099 40.6828 26.8681 40.8997 27.2594 41.0363C27.6506 41.1729 28.0663 41.226 28.4795 41.1923C29.341 41.0879 30.1328 40.6672 30.7003 40.0123C31.2678 39.3573 31.5704 38.5149 31.5491 37.6495C31.5491 37.555 31.5491 37.4605 31.5491 37.3704C32.423 37.1207 33.2765 36.8049 34.1022 36.4256C34.1395 36.5065 34.1812 36.5854 34.227 36.6618C34.4428 37.0126 34.7296 37.3145 35.0692 37.5482C35.4087 37.782 35.7935 37.9424 36.1988 38.0192C36.6041 38.096 37.0211 38.0875 37.4229 37.9943C37.8247 37.9011 38.2026 37.7251 38.5323 37.4777C39.2458 36.9839 39.7491 36.2427 39.9442 35.3986C40.1392 34.5546 40.0119 33.6684 39.5871 32.9129C39.5423 32.8387 39.4935 32.767 39.4407 32.6982C40.1047 32.0277 40.7191 31.3101 41.2791 30.551C41.3368 30.5988 41.3972 30.6432 41.4599 30.6842ZM22.5424 30.9246C17.0317 28.1334 15.0211 21.0478 18.0477 15.0959C21.0743 9.14402 27.9843 6.59322 33.508 9.37162C39.0317 12.15 41.0294 19.2485 38.0028 25.2004C34.9761 31.1522 28.0489 33.7116 22.5424 30.9246Z" fill="url(#paint21_linear)"/>
<path d="M45.1412 21.898C46.0044 21.7957 46.7982 21.3758 47.3675 20.7206C47.9368 20.0654 48.2406 19.222 48.2195 18.3552C48.2281 17.9419 48.1496 17.5313 47.9892 17.15C47.8287 16.7688 47.5897 16.4254 47.2878 16.1421C46.9859 15.8587 46.6277 15.6418 46.2365 15.5052C45.8452 15.3686 45.4295 15.3155 45.0164 15.3492C44.926 15.3492 44.8398 15.3492 44.7494 15.3879C44.5715 14.4996 44.3239 13.6266 44.0089 12.777C44.0864 12.7297 44.1682 12.6825 44.2457 12.6267C45.7267 11.5917 47.5565 9.09248 46.5146 7.70542C44.5299 5.07732 42.4762 6.21531 40.9952 7.25023C40.9206 7.30231 40.8488 7.35821 40.78 7.4177C40.1892 6.76872 39.5455 6.16976 38.8555 5.62699C38.9079 5.54841 38.9553 5.46666 38.9976 5.38221C39.2083 4.96883 39.333 4.51715 39.3641 4.05441C39.3952 3.59166 39.332 3.12743 39.1784 2.6897C37.7433 5.20042 36.334 7.72403 34.9506 10.2605C39.3506 13.4641 40.7498 19.8024 38.003 25.2003C35.6739 29.7823 31.0457 32.3589 26.5251 32.0197C26.3228 32.5436 26.129 33.0675 25.9094 33.5828C25.3239 34.9827 24.6609 36.3569 23.9936 37.7268C24.4241 37.8084 24.8547 37.8685 25.255 37.9114C25.255 38.0059 25.255 38.0961 25.255 38.1863C25.2938 39.9899 26.3916 41.5229 29.5302 41.3597C31.2523 41.2653 31.5623 39.4359 31.5279 37.6323C31.5279 37.5378 31.5279 37.4433 31.5279 37.3532C32.4017 37.1035 33.2552 36.7877 34.0809 36.4084C34.1182 36.4893 34.1599 36.5682 34.2058 36.6446C35.1056 38.1304 38.2183 38.7617 39.6993 37.7268C41.1803 36.6918 40.47 34.3815 39.5702 32.8957C39.5254 32.8215 39.4765 32.7498 39.4238 32.681C40.0878 32.0105 40.7022 31.2929 41.2621 30.5338C41.3351 30.5832 41.4114 30.6277 41.4903 30.667C43.0058 31.4356 44.9346 30.7271 45.7483 29.091C46.562 27.4548 46.0281 25.5009 44.5083 24.7323C44.4308 24.6893 44.349 24.6593 44.2715 24.6249C44.55 23.7296 44.7629 22.8154 44.9087 21.8894C44.9647 21.9066 45.0508 21.9066 45.1412 21.898Z" fill="url(#paint22_linear)"/>
<path d="M43.0919 30.8689C44.6074 31.6376 46.5361 30.9333 47.3498 29.2929C48.1635 27.6525 47.6297 25.7029 46.1099 24.9342L45.8731 24.8268C46.1472 23.9312 46.3558 23.017 46.4974 22.0914C46.5835 22.0914 46.6696 22.0914 46.76 22.0914C47.6216 21.987 48.4133 21.5663 48.9809 20.9113C49.5484 20.2563 49.851 19.414 49.8297 18.5486C49.839 18.135 49.761 17.7241 49.6007 17.3425C49.4404 16.961 49.2015 16.6173 48.8995 16.3339C48.5974 16.0504 48.2389 15.8334 47.8474 15.6971C47.4558 15.5608 47.0398 15.5081 46.6265 15.5426C46.5361 15.5426 46.45 15.5426 46.3596 15.5812C46.1863 14.6964 45.9445 13.8264 45.6363 12.9789C45.7178 12.9328 45.7968 12.8827 45.8731 12.8286C46.5855 12.3349 47.0881 11.5944 47.2831 10.7514C47.478 9.90835 47.3514 9.0231 46.9279 8.26805C46.7121 7.9173 46.4253 7.61537 46.0858 7.38162C45.7462 7.14787 45.3614 6.98745 44.9561 6.91063C44.5508 6.83382 44.1339 6.84231 43.732 6.93556C43.3302 7.02881 42.9523 7.20476 42.6226 7.45214C42.5494 7.50367 42.4762 7.56379 42.4073 7.61961C41.8127 6.97126 41.1646 6.3737 40.47 5.83319C40.5173 5.7516 40.5647 5.67001 40.6077 5.58412C41.443 3.948 40.8876 1.9941 39.3721 1.22542C37.8566 0.456746 35.9279 1.1653 35.1142 2.80143C35.0711 2.88731 35.0324 2.9732 34.9979 3.05908C34.152 2.82454 33.288 2.66079 32.4148 2.56953C32.4148 2.47935 32.4148 2.38488 32.4148 2.2947C32.4231 1.88344 32.3452 1.47497 32.186 1.09552C32.0267 0.716077 31.7897 0.374039 31.4901 0.0913727C31.1905 -0.191294 30.8349 -0.408342 30.4462 -0.545835C30.0576 -0.683327 29.6443 -0.738226 29.2331 -0.707005C28.3716 -0.601606 27.5802 -0.179883 27.0135 0.475914C26.4468 1.13171 26.1453 1.97456 26.1678 2.84007C26.1678 2.93455 26.1678 3.02473 26.1678 3.11491C25.2939 3.36455 24.4404 3.68039 23.6147 4.05965C23.576 3.98235 23.5372 3.90076 23.4899 3.82347C23.2746 3.4722 22.9879 3.16977 22.6484 2.93564C22.3089 2.7015 21.924 2.54084 21.5185 2.46399C21.113 2.38714 20.6958 2.3958 20.2938 2.48942C19.8919 2.58303 19.514 2.75953 19.1846 3.00755C18.4696 3.50007 17.9648 4.24106 17.7689 5.08541C17.573 5.92977 17.7001 6.81665 18.1255 7.57238C18.1728 7.64538 18.2202 7.71838 18.2718 7.78709C17.6079 8.45758 16.9935 9.17517 16.4335 9.93423L16.2096 9.80111C14.6898 9.03243 12.7654 9.74099 11.9474 11.3771C11.1294 13.0132 11.6675 14.9671 13.1873 15.7358C13.2648 15.7788 13.3466 15.8088 13.4241 15.8432C13.1477 16.739 12.9348 17.653 12.7869 18.5786C12.7008 18.5786 12.6147 18.5786 12.5243 18.5786C11.6647 18.688 10.8764 19.1118 10.3124 19.768C9.74841 20.4242 9.44884 21.266 9.47181 22.13C9.46252 22.5436 9.54054 22.9545 9.7008 23.336C9.86106 23.7176 10.1 24.0612 10.402 24.3447C10.7041 24.6282 11.0626 24.8451 11.4541 24.9815C11.8457 25.1178 12.2617 25.1704 12.675 25.136C12.7645 25.1276 12.8536 25.1147 12.9419 25.0974C13.1224 25.9864 13.37 26.8606 13.6824 27.7126C13.6049 27.7555 13.5231 27.807 13.4456 27.8586C12.7377 28.3517 12.238 29.0891 12.0432 29.9282C11.8484 30.7673 11.9723 31.6486 12.3908 32.4019C12.606 32.7534 12.8927 33.0559 13.2324 33.29C13.572 33.5241 13.9571 33.6846 14.3628 33.7611C14.7685 33.8375 15.1858 33.8283 15.5876 33.734C15.9895 33.6397 16.3672 33.4624 16.6961 33.2136C16.7721 33.1615 16.8454 33.1056 16.9157 33.0461C17.5027 33.6971 18.1452 34.2963 18.8358 34.8368C18.7834 34.9154 18.736 34.9971 18.6938 35.0816C17.8585 36.722 18.4139 38.6716 19.9337 39.4403C21.4535 40.2089 23.3779 39.5047 24.1916 37.8643C24.2347 37.7784 24.2691 37.6925 24.3079 37.6066C25.1536 37.8418 26.0178 38.0055 26.8911 38.0962C26.8911 38.1906 26.8911 38.2808 26.8911 38.371C26.8824 38.7844 26.9609 39.195 27.1214 39.5762C27.2819 39.9574 27.5208 40.3008 27.8227 40.5842C28.1247 40.8675 28.4828 41.0845 28.8741 41.221C29.2654 41.3576 29.681 41.4107 30.0942 41.377C30.9565 41.2694 31.7476 40.845 32.3128 40.1867C32.8781 39.5283 33.177 38.6834 33.151 37.817C33.151 37.7226 33.151 37.6281 33.151 37.5379C34.0248 37.2883 34.8783 36.9724 35.704 36.5932C35.7427 36.6747 35.7858 36.752 35.8289 36.8293C36.0446 37.1801 36.3315 37.482 36.671 37.7158C37.0106 37.9495 37.3953 38.1099 37.8006 38.1868C38.206 38.2636 38.6229 38.2551 39.0247 38.1618C39.4266 38.0686 39.8044 37.8926 40.1342 37.6453C40.8476 37.1515 41.351 36.4102 41.546 35.5662C41.741 34.7221 41.6137 33.8359 41.1889 33.0804C41.1441 33.0062 41.0953 32.9346 41.0426 32.8657C41.7068 32.1955 42.3213 31.4779 42.8809 30.7186C42.9369 30.783 43.0101 30.8302 43.0919 30.8689ZM24.1744 31.1094C18.6636 28.3181 16.653 21.2325 19.6797 15.2806C22.7063 9.32874 29.6335 6.76935 35.1443 9.56063C40.6551 12.3519 42.6614 19.4375 39.6347 25.3851C36.6081 31.3327 29.6809 33.8963 24.1744 31.1094Z" fill="url(#paint23_linear)"/>
<path d="M72.2038 43.2063C72.772 43.4457 73.4101 43.4613 73.9893 43.2498C74.5686 43.0384 75.0459 42.6158 75.325 42.0672C75.6041 41.5185 75.6643 40.8847 75.4933 40.2936C75.3224 39.7025 74.933 39.198 74.4038 38.8819C74.3478 38.8519 74.2876 38.8304 74.2316 38.8046C74.4318 38.1518 74.5871 37.486 74.6966 36.8121C74.7596 36.8163 74.8229 36.8163 74.886 36.8121C75.5133 36.7365 76.09 36.4309 76.5038 35.9546C76.9176 35.4784 77.1389 34.8656 77.1248 34.2355C77.13 33.9352 77.0721 33.6371 76.9547 33.3605C76.8372 33.0839 76.6629 32.835 76.443 32.6298C76.2231 32.4246 75.9624 32.2677 75.6779 32.1693C75.3934 32.0709 75.0914 32.033 74.7913 32.0583L74.5976 32.0841C74.4646 31.4327 74.2818 30.7924 74.0508 30.1688L74.223 30.0615C74.7436 29.7019 75.1111 29.1616 75.2536 28.5461C75.3961 27.9307 75.3034 27.2843 74.9936 26.7334C74.8369 26.4771 74.628 26.2564 74.3804 26.0856C74.1328 25.9148 73.8521 25.7977 73.5563 25.7419C73.2605 25.686 72.9563 25.6927 72.6633 25.7614C72.3702 25.8301 72.0949 25.9594 71.8551 26.1408C71.7991 26.1794 71.7474 26.2224 71.6958 26.2653C71.2669 25.797 70.7988 25.3661 70.2966 24.977L70.3999 24.801C71.0069 23.6029 71.8034 22.3017 70.6883 21.7563C68.1052 20.5024 67.003 21.576 66.383 22.7698C66.3508 22.8311 66.322 22.8942 66.2969 22.9587C65.681 22.7871 65.0516 22.6679 64.4155 22.6023C64.4198 22.5351 64.4198 22.4677 64.4155 22.4005C64.3897 21.0864 64.7815 20.3736 63.5157 20.3521C60.7517 20.2963 59.8218 21.4901 59.8476 22.8084C59.8476 22.8771 59.8476 22.9416 59.8476 23.0103C59.2109 23.1914 58.5891 23.4211 57.9877 23.6974C57.9619 23.6379 57.9317 23.5805 57.8973 23.5256C57.7421 23.2727 57.536 23.0545 57.2921 22.885C57.0482 22.7154 56.7717 22.5981 56.4801 22.5404C56.1884 22.4827 55.888 22.4859 55.5977 22.5498C55.3073 22.6136 55.0334 22.7368 54.7932 22.9115C54.2725 23.2711 53.905 23.8114 53.7625 24.4269C53.62 25.0423 53.7127 25.6887 54.0225 26.2396C54.057 26.2954 54.0914 26.3469 54.1302 26.3985C53.6457 26.8812 53.1981 27.3994 52.7912 27.9487C52.7352 27.9143 52.6836 27.88 52.6233 27.8499C52.056 27.6196 51.4226 27.6105 50.8488 27.8243C50.275 28.0381 49.8028 28.4593 49.5258 29.0042C49.2488 29.5491 49.1874 30.178 49.3536 30.766C49.5199 31.3541 49.9017 31.8583 50.4233 32.1786L50.5955 32.2559C50.3942 32.9082 50.2402 33.5741 50.1348 34.2484H49.9411C49.3146 34.3249 48.739 34.631 48.326 35.1072C47.9131 35.5833 47.6924 36.1956 47.7066 36.825C47.7014 37.1249 47.7593 37.4226 47.8764 37.6989C47.9936 37.9752 48.1675 38.2239 48.387 38.429C48.6064 38.6341 48.8665 38.7911 49.1505 38.8898C49.4345 38.9886 49.7361 39.0268 50.0358 39.0022L50.2339 38.9721C50.3626 39.6208 50.5425 40.2584 50.772 40.8788L50.5998 40.9861C50.0795 41.345 49.7121 41.8845 49.5696 42.4993C49.4271 43.114 49.5196 43.7597 49.8292 44.3099C50.4836 45.3921 52.6491 45.8945 53.7255 45.143C53.7814 45.1044 53.0754 44.8252 53.127 44.7823C53.5569 45.2496 54.0249 45.6805 54.5262 46.0706L54.4229 46.2509C54.2569 46.5159 54.148 46.8124 54.1032 47.1216C54.0583 47.4309 54.0786 47.746 54.1626 48.047C54.2466 48.348 54.3925 48.6283 54.591 48.8699C54.7896 49.1116 55.0364 49.3093 55.3158 49.4506C55.5952 49.5919 55.901 49.6736 56.2138 49.6905C56.5266 49.7074 56.8395 49.6592 57.1325 49.5489C57.4256 49.4385 57.6924 49.2686 57.916 49.0497C58.1396 48.8309 58.315 48.568 58.4311 48.2778C58.4613 48.2177 58.4871 48.1533 58.513 48.0932C59.1289 48.2648 59.7583 48.384 60.3944 48.4496C60.3944 48.5183 60.3944 48.5827 60.3944 48.6514C60.3891 48.9518 60.447 49.2499 60.5645 49.5264C60.6819 49.803 60.8562 50.052 61.0761 50.2572C61.2961 50.4624 61.5567 50.6192 61.8412 50.7177C62.1257 50.8161 62.4278 50.8539 62.7278 50.8286C63.3543 50.7521 63.93 50.446 64.3429 49.9699C64.7558 49.4937 64.9766 48.8815 64.9623 48.2521C64.9666 48.1849 64.9666 48.1175 64.9623 48.0502C65.599 47.8691 66.2208 47.6394 66.8222 47.3632C66.8523 47.419 66.8781 47.4791 66.9126 47.5349C67.0693 47.7913 67.2783 48.0119 67.5258 48.1827C67.7734 48.3535 68.0542 48.4706 68.3499 48.5265C68.6457 48.5823 68.9499 48.5757 69.243 48.5069C69.536 48.4382 69.8113 48.309 70.0512 48.1275C70.5715 47.7687 70.9388 47.2291 71.0814 46.6144C71.2239 45.9997 71.1313 45.354 70.8218 44.8038C70.7899 44.7482 70.754 44.6951 70.7142 44.6449C71.1978 44.1601 71.6466 43.6421 72.0574 43.0946C72.1034 43.1354 72.1523 43.1727 72.2038 43.2063ZM58.4268 43.3824C54.41 41.3469 52.9462 36.1851 55.1505 31.8479C57.3548 27.5107 62.4049 25.6427 66.4175 27.6782C70.43 29.7136 71.8981 34.8754 69.6852 39.2298C67.4723 43.5842 62.4265 45.4136 58.4182 43.3824H58.4268Z" fill="url(#paint24_linear)"/>
<path d="M74.8869 36.8035C75.5142 36.7279 76.0909 36.4223 76.5047 35.946C76.9185 35.4698 77.1399 34.857 77.1257 34.2269C77.131 33.9266 77.073 33.6285 76.9556 33.3519C76.8382 33.0753 76.6638 32.8264 76.4439 32.6212C76.224 32.416 75.9634 32.2591 75.6789 32.1607C75.3943 32.0622 75.0923 32.0244 74.7922 32.0497L74.5985 32.0755C74.4651 31.427 74.2823 30.7896 74.0517 30.1688L74.2239 30.0615C75.3045 29.3057 76.6392 27.4849 75.8772 26.4757C74.4306 24.5562 72.9366 25.3893 71.856 26.1408C71.8 26.1794 71.7484 26.2224 71.6967 26.2653C71.2678 25.797 70.7997 25.366 70.2975 24.977L70.4008 24.801C70.5573 24.4977 70.6506 24.1659 70.675 23.8256C70.6995 23.4854 70.6545 23.1437 70.5429 22.8213C69.501 24.6564 68.4735 26.4958 67.4603 28.3394C70.6634 30.6798 71.6838 35.2962 69.6818 39.2298C67.9855 42.5621 64.6102 44.4344 61.3166 44.1982C61.1702 44.5804 61.0282 44.9626 60.8861 45.3362C60.4556 46.3583 59.9734 47.3588 59.4912 48.3422C59.7969 48.3981 60.1025 48.4453 60.4082 48.4753C60.4082 48.5441 60.4082 48.6085 60.4082 48.6772C60.434 49.9912 61.2348 51.1077 63.5209 50.9875C64.7867 50.9188 65.002 49.5833 64.9761 48.2692C64.9804 48.202 64.9804 48.1346 64.9761 48.0674C65.6128 47.8863 66.2346 47.6565 66.836 47.3803C66.8662 47.4361 66.892 47.4963 66.9264 47.5521C67.5808 48.6342 69.8497 49.0937 70.9304 48.3422C72.011 47.5907 71.4901 45.9031 70.8356 44.8209C70.8038 44.7654 70.7678 44.7122 70.728 44.662C71.2116 44.1773 71.6605 43.6593 72.0713 43.1118C72.1233 43.1474 72.178 43.179 72.2349 43.2063C72.8031 43.4457 73.4411 43.4612 74.0204 43.2498C74.5997 43.0384 75.077 42.6158 75.3561 42.0671C75.6352 41.5185 75.6954 40.8847 75.5244 40.2936C75.3534 39.7024 74.9641 39.198 74.4349 38.8819C74.3789 38.8519 74.3186 38.8304 74.2627 38.8046C74.4629 38.1517 74.6182 37.486 74.7276 36.8121C74.7809 36.8122 74.834 36.8093 74.8869 36.8035Z" fill="url(#paint25_linear)"/>
<path d="M73.3922 43.3437C73.9602 43.578 74.5958 43.5901 75.1723 43.3774C75.7487 43.1647 76.2236 42.743 76.5019 42.1964C76.7802 41.6498 76.8416 41.0187 76.6738 40.4289C76.506 39.8392 76.1213 39.3342 75.5966 39.015L75.42 38.942C75.6248 38.2889 75.7802 37.6214 75.885 36.9452H76.0744C76.7013 36.8687 77.2774 36.5628 77.6911 36.0867C78.1047 35.6107 78.3264 34.9984 78.3132 34.3686C78.3185 34.0683 78.2605 33.7702 78.1431 33.4936C78.0257 33.217 77.8513 32.9681 77.6314 32.7629C77.4115 32.5577 77.1509 32.4008 76.8664 32.3024C76.5818 32.2039 76.2798 32.1661 75.9797 32.1914L75.786 32.2215C75.6538 31.5731 75.4724 30.9358 75.2435 30.3148C75.3034 30.2831 75.3609 30.2472 75.4157 30.2074C75.9423 29.8508 76.3154 29.3101 76.4613 28.6922C76.6072 28.0743 76.5152 27.4243 76.2036 26.8708C76.0468 26.6145 75.8379 26.3938 75.5904 26.223C75.3428 26.0522 75.062 25.9351 74.7663 25.8793C74.4705 25.8234 74.1663 25.8301 73.8732 25.8988C73.5802 25.9675 73.3049 26.0967 73.065 26.2782L72.9101 26.3984C72.4797 25.93 72.0102 25.499 71.5065 25.1101C71.5442 25.0519 71.5787 24.9917 71.6098 24.9298C71.7606 24.6651 71.8558 24.3727 71.8897 24.0702C71.9236 23.7677 71.8956 23.4615 71.8072 23.1701C71.7188 22.8788 71.572 22.6084 71.3757 22.3754C71.1793 22.1424 70.9375 21.9516 70.665 21.8147C70.3925 21.6777 70.0949 21.5975 69.7903 21.5788C69.4857 21.5601 69.1805 21.6034 68.8932 21.7059C68.6059 21.8085 68.3425 21.9683 68.119 22.1755C67.8955 22.3827 67.7165 22.6331 67.593 22.9115C67.5629 22.9716 67.5327 23.036 67.5069 23.0961C66.891 22.9245 66.2616 22.8053 65.6255 22.7397C65.6255 22.6753 65.6255 22.6066 65.6255 22.5379C65.6345 22.235 65.5792 21.9337 65.4631 21.6536C65.3471 21.3736 65.1729 21.1213 64.9521 20.9132C64.7313 20.7051 64.4688 20.546 64.182 20.4464C63.8951 20.3467 63.5903 20.3087 63.2877 20.3349C62.6612 20.4123 62.0857 20.7185 61.6722 21.1943C61.2588 21.6701 61.0367 22.2819 61.049 22.9115C61.049 22.9802 61.049 23.0489 61.049 23.1133C60.4126 23.2956 59.7909 23.5252 59.1891 23.8004C59.1589 23.7445 59.1288 23.6844 59.0943 23.6286C58.9364 23.3752 58.7273 23.1574 58.4803 22.9891C58.2333 22.8209 57.9538 22.7058 57.6597 22.6512C57.3656 22.5967 57.0633 22.6039 56.7722 22.6723C56.481 22.7408 56.2074 22.869 55.9687 23.0489C55.4484 23.4077 55.081 23.9473 54.9385 24.562C54.796 25.1767 54.8885 25.8224 55.1981 26.3727C55.2325 26.4285 55.2669 26.48 55.3057 26.5315C54.8274 27.0102 54.3842 27.5225 53.9797 28.0646C53.928 28.0302 53.872 28.0002 53.8161 27.9701C53.2497 27.7424 52.6184 27.7347 52.0467 27.9485C51.4749 28.1623 51.0042 28.582 50.7275 29.1249C50.4508 29.6678 50.3881 30.2944 50.5517 30.8812C50.7154 31.4679 51.0936 31.9722 51.6117 32.2945C51.6689 32.3238 51.7279 32.3496 51.7883 32.3718C51.584 33.0235 51.4286 33.6896 51.3233 34.3643C51.2588 34.36 51.1941 34.36 51.1295 34.3643C50.5027 34.4399 49.9265 34.7457 49.5134 35.2221C49.1002 35.6985 48.8798 36.3112 48.8951 36.9409C48.8854 37.2441 48.9403 37.5459 49.0561 37.8264C49.1719 38.107 49.3459 38.3598 49.5668 38.5684C49.7877 38.7769 50.0504 38.9364 50.3376 39.0364C50.6247 39.1363 50.9299 39.1744 51.2329 39.1482L51.4266 39.1224C51.5574 39.7692 51.7373 40.4052 51.9648 41.0248L51.7926 41.1321C51.2735 41.493 50.9073 42.0333 50.7649 42.6482C50.6225 43.2631 50.7141 43.9088 51.0219 44.4602C51.1787 44.7165 51.3876 44.9372 51.6352 45.108C51.8827 45.2788 52.1635 45.3959 52.4593 45.4517C52.755 45.5076 53.0592 45.5009 53.3523 45.4322C53.6453 45.3635 53.9206 45.2342 54.1605 45.0528C54.2164 45.0142 54.2681 44.9712 54.3198 44.9283C54.7497 45.3955 55.2177 45.8264 55.719 46.2166C55.6825 46.2747 55.6495 46.3349 55.62 46.3969C55.4588 46.6613 55.3541 46.9561 55.3125 47.2627C55.2709 47.5694 55.2932 47.8813 55.3782 48.1789C55.4631 48.4765 55.6088 48.7534 55.8061 48.9922C56.0035 49.2311 56.2481 49.4266 56.5248 49.5667C56.8014 49.7067 57.1041 49.7882 57.4138 49.8061C57.7235 49.824 58.0336 49.7778 58.3246 49.6705C58.6156 49.5632 58.8812 49.397 59.1048 49.1825C59.3284 48.968 59.5051 48.7097 59.6239 48.4238C59.654 48.3594 59.6842 48.2993 59.71 48.2349C60.3249 48.4054 60.9527 48.526 61.5871 48.5956C61.5871 48.66 61.5871 48.7287 61.5871 48.7931C61.5818 49.0934 61.6398 49.3915 61.7572 49.6681C61.8747 49.9447 62.049 50.1937 62.2689 50.3988C62.4888 50.604 62.7494 50.7609 63.034 50.8594C63.3185 50.9578 63.6205 50.9956 63.9206 50.9703C64.5479 50.8956 65.1246 50.5901 65.5379 50.1135C65.9512 49.637 66.1713 49.0237 66.155 48.3938C66.1593 48.3251 66.1593 48.2563 66.155 48.1876C66.7926 48.0092 67.4146 47.7794 68.0149 47.5005L68.1096 47.6766C68.2664 47.9329 68.4753 48.1536 68.7229 48.3244C68.9705 48.4952 69.2512 48.6123 69.547 48.6681C69.8427 48.724 70.147 48.7173 70.44 48.6486C70.733 48.5799 71.0084 48.4507 71.2482 48.2692C71.7681 47.909 72.1349 47.3687 72.2774 46.7535C72.4198 46.1383 72.3277 45.4923 72.0189 44.9412C71.9844 44.8853 71.9457 44.8338 71.9112 44.7823C72.3946 44.3001 72.8421 43.7834 73.2502 43.2363L73.3922 43.3437ZM59.6153 43.5154C55.5984 41.4842 54.1346 36.3182 56.3433 31.981C58.5519 27.6438 63.5848 25.78 67.593 27.8112C71.6012 29.8424 73.0737 35.0085 70.865 39.3457C68.6564 43.6829 63.6235 45.5509 59.6067 43.524L59.6153 43.5154Z" fill="url(#paint26_linear)"/>
</g>
</g>
<defs>
<linearGradient id="paint0_linear" x1="114.366" y1="23.9164" x2="134.522" y2="127.274" gradientUnits="userSpaceOnUse">
<stop stop-color="#65BBAB"/>
<stop offset="1" stop-color="#1C9B83"/>
</linearGradient>
<linearGradient id="paint1_linear" x1="67.6281" y1="89.0391" x2="229.124" y2="2.05268" gradientUnits="userSpaceOnUse">
<stop stop-color="#FDF53F"/>
<stop offset="1" stop-color="#D93C65"/>
</linearGradient>
<linearGradient id="paint2_linear" x1="50.0229" y1="144.521" x2="48.8406" y2="159.646" gradientUnits="userSpaceOnUse">
<stop stop-color="#26264F"/>
<stop offset="1" stop-color="#444B8C"/>
</linearGradient>
<linearGradient id="paint3_linear" x1="47.1946" y1="152.964" x2="47.4088" y2="137.341" gradientUnits="userSpaceOnUse">
<stop stop-color="#FFC444"/>
<stop offset="1" stop-color="#F36F56"/>
</linearGradient>
<linearGradient id="paint4_linear" x1="6057.8" y1="1860.42" x2="6077.15" y2="2040.24" gradientUnits="userSpaceOnUse">
<stop stop-color="#26264F"/>
<stop offset="1" stop-color="#444B8C"/>
</linearGradient>
<linearGradient id="paint5_linear" x1="3506.19" y1="1419.92" x2="3503.24" y2="1290.4" gradientUnits="userSpaceOnUse">
<stop stop-color="#FFC444"/>
<stop offset="1" stop-color="#F36F56"/>
</linearGradient>
<linearGradient id="paint6_linear" x1="-2842.89" y1="1040.27" x2="-2874.85" y2="1040.27" gradientUnits="userSpaceOnUse">
<stop stop-color="#FFC444"/>
<stop offset="1" stop-color="#F36F56"/>
</linearGradient>
<linearGradient id="paint7_linear" x1="3946.72" y1="3808.5" x2="3411.27" y2="6157.4" gradientUnits="userSpaceOnUse">
<stop stop-color="#65C1B0"/>
<stop offset="1" stop-color="#1C9B83"/>
</linearGradient>
<linearGradient id="paint8_linear" x1="4888.98" y1="7384.99" x2="3569.36" y2="12200.9" gradientUnits="userSpaceOnUse">
<stop stop-color="#65C1B0"/>
<stop offset="1" stop-color="#1C9B83"/>
</linearGradient>
<linearGradient id="paint9_linear" x1="-5059.88" y1="797.921" x2="-5139.29" y2="797.921" gradientUnits="userSpaceOnUse">
<stop stop-color="#FFC444"/>
<stop offset="1" stop-color="#F36F56"/>
</linearGradient>
<linearGradient id="paint10_linear" x1="55.9388" y1="96.683" x2="17.9445" y2="96.683" gradientUnits="userSpaceOnUse">
<stop stop-color="#AA80F9"/>
<stop offset="1" stop-color="#6165D7"/>
</linearGradient>
<linearGradient id="paint11_linear" x1="2015.73" y1="4819.89" x2="804.656" y2="7697.34" gradientUnits="userSpaceOnUse">
<stop stop-color="#65C1B0"/>
<stop offset="1" stop-color="#1C9B83"/>
</linearGradient>
<linearGradient id="paint12_linear" x1="-11561.5" y1="1129.77" x2="-11609.3" y2="912.868" gradientUnits="userSpaceOnUse">
<stop stop-color="#FFC444"/>
<stop offset="1" stop-color="#F36F56"/>
</linearGradient>
<linearGradient id="paint13_linear" x1="-3748.39" y1="1421.8" x2="-3848.21" y2="1345.17" gradientUnits="userSpaceOnUse">
<stop stop-color="#FFC444"/>
<stop offset="1" stop-color="#F36F56"/>
</linearGradient>
<linearGradient id="paint14_linear" x1="79.5959" y1="90.0311" x2="158.301" y2="90.0311" gradientUnits="userSpaceOnUse">
<stop stop-color="#1C9B83"/>
<stop offset="1" stop-color="#65C1B0"/>
</linearGradient>
<linearGradient id="paint15_linear" x1="2788.28" y1="2401.4" x2="2956.38" y2="2401.4" gradientUnits="userSpaceOnUse">
<stop stop-color="#1C9B83"/>
<stop offset="1" stop-color="#65C1B0"/>
</linearGradient>
<linearGradient id="paint16_linear" x1="15664.5" y1="14300.7" x2="10689.6" y2="21438" gradientUnits="userSpaceOnUse">
<stop stop-color="#FFC444"/>
<stop offset="1" stop-color="#F36F56"/>
</linearGradient>
<linearGradient id="paint17_linear" x1="15489.6" y1="13728" x2="14036.7" y2="15667.7" gradientUnits="userSpaceOnUse">
<stop stop-color="#FFC444"/>
<stop offset="1" stop-color="#F36F56"/>
</linearGradient>
<linearGradient id="paint18_linear" x1="12522.5" y1="11095.8" x2="14690.2" y2="16632.1" gradientUnits="userSpaceOnUse">
<stop stop-color="#FFC444"/>
<stop offset="1" stop-color="#F36F56"/>
</linearGradient>
<linearGradient id="paint19_linear" x1="113.746" y1="210.958" x2="153.995" y2="102.203" gradientUnits="userSpaceOnUse">
<stop stop-color="#EBEFF2"/>
<stop offset="1" stop-color="white"/>
</linearGradient>
<linearGradient id="paint20_linear" x1="6096.67" y1="7104.5" x2="4522.84" y2="9314.42" gradientUnits="userSpaceOnUse">
<stop stop-color="#FFC444"/>
<stop offset="1" stop-color="#F36F56"/>
</linearGradient>
<linearGradient id="paint21_linear" x1="4861.58" y1="3352.21" x2="2593.58" y2="2072.28" gradientUnits="userSpaceOnUse">
<stop stop-color="#1C9B83"/>
<stop offset="1" stop-color="#65C1B0"/>
</linearGradient>
<linearGradient id="paint22_linear" x1="1318.68" y1="1626.56" x2="1649.49" y2="1719.67" gradientUnits="userSpaceOnUse">
<stop stop-color="#1C9B83"/>
<stop offset="1" stop-color="#65C1B0"/>
</linearGradient>
<linearGradient id="paint23_linear" x1="4279.98" y1="4031.01" x2="-1446.9" y2="-2922.48" gradientUnits="userSpaceOnUse">
<stop stop-color="#1C9B83"/>
<stop offset="1" stop-color="#65C1B0"/>
</linearGradient>
<linearGradient id="paint24_linear" x1="5495.3" y1="3291.2" x2="4291.78" y2="2610.65" gradientUnits="userSpaceOnUse">
<stop stop-color="#1C9B83"/>
<stop offset="1" stop-color="#65C1B0"/>
</linearGradient>
<linearGradient id="paint25_linear" x1="2466.34" y1="2265" x2="2641.8" y2="2314.44" gradientUnits="userSpaceOnUse">
<stop stop-color="#1C9B83"/>
<stop offset="1" stop-color="#65C1B0"/>
</linearGradient>
<linearGradient id="paint26_linear" x1="5186.76" y1="3661.06" x2="2149.23" y2="-31.9788" gradientUnits="userSpaceOnUse">
<stop stop-color="#1C9B83"/>
<stop offset="1" stop-color="#65C1B0"/>
</linearGradient>
<clipPath id="clip0">
<rect width="170" height="170" fill="white"/>
</clipPath>
<clipPath id="clip1">
<rect width="165.087" height="167.052" fill="white" transform="translate(0 -1.96533)"/>
</clipPath>
</defs>
</svg>
