<svg width="179" height="168" viewBox="0 0 179 168" fill="none" xmlns="http://www.w3.org/2000/svg">
<path d="M176.931 80.1423L141.112 74.7657C139.969 74.5941 138.905 75.3867 138.734 76.5359L131.285 126.715C131.115 127.864 131.903 128.935 133.046 129.106L168.864 134.483C170.007 134.654 171.072 133.862 171.242 132.713L178.691 82.5337C178.862 81.3845 178.074 80.3138 176.931 80.1423Z" fill="#1C9B83"/>
<path d="M175.325 83.3857L141.679 78.2594L134.337 126.987L167.983 132.113L175.325 83.3857Z" fill="white"/>
<path opacity="0.55" d="M168.152 131.737L168.116 132L134.521 126.877L141.744 77.4545L154.686 79.4278C150.94 83.3155 148.248 88.1314 146.874 93.4028C145.5 98.6741 145.492 104.22 146.85 109.495C148.208 114.771 150.886 119.595 154.62 123.495C158.355 127.394 163.018 130.235 168.152 131.737Z" fill="#F6FBFA"/>
<path opacity="0.22" d="M151.28 92.5477L169.741 94.9073C169.876 94.9177 170.011 94.8834 170.118 94.8113C170.225 94.7393 170.296 94.635 170.316 94.5198C170.336 94.4046 170.304 94.2872 170.226 94.1917C170.148 94.0961 170.031 94.0296 169.898 94.0057L151.437 91.6461C151.365 91.6334 151.292 91.6332 151.221 91.6456C151.15 91.658 151.082 91.6828 151.023 91.7183C150.963 91.7538 150.913 91.7995 150.874 91.8523C150.836 91.9052 150.811 91.9642 150.8 92.0257C150.789 92.0873 150.793 92.15 150.812 92.2101C150.831 92.2703 150.863 92.3265 150.908 92.3754C150.953 92.4243 151.009 92.4648 151.073 92.4944C151.137 92.524 151.207 92.5422 151.28 92.5477Z" fill="#1C9B83"/>
<path opacity="0.22" d="M151.253 95.0486L168.688 98.1794C168.816 98.1932 168.944 98.1474 169.045 98.0514C169.145 97.9554 169.212 97.8163 169.231 97.6627C169.25 97.5091 169.22 97.3526 169.146 97.2252C169.073 97.0977 168.962 97.009 168.836 96.9772L151.401 93.8311C151.334 93.8141 151.264 93.8139 151.197 93.8304C151.13 93.847 151.066 93.88 151.01 93.9274C150.954 93.9748 150.906 94.0356 150.87 94.106C150.834 94.1765 150.81 94.2552 150.8 94.3373C150.79 94.4193 150.793 94.503 150.811 94.5831C150.829 94.6633 150.86 94.7383 150.902 94.8035C150.944 94.8686 150.997 94.9226 151.058 94.9621C151.118 95.0017 151.184 95.0259 151.253 95.0333V95.0486Z" fill="#1C9B83"/>
<path d="M148.594 92.5874C148.514 93.1207 148.279 93.6184 147.918 94.0173C147.557 94.4162 147.086 94.6986 146.566 94.8286C146.045 94.9587 145.498 94.9306 144.994 94.7479C144.489 94.5652 144.049 94.2361 143.731 93.8023C143.412 93.3684 143.229 92.8493 143.203 92.3105C143.178 91.7717 143.312 91.2375 143.589 90.7754C143.865 90.3133 144.272 89.944 144.757 89.7143C145.242 89.4845 145.784 89.4047 146.315 89.4848C146.667 89.5373 147.006 89.6594 147.311 89.8439C147.617 90.0285 147.883 90.2718 148.095 90.5601C148.307 90.8484 148.46 91.1758 148.545 91.5237C148.631 91.8716 148.647 92.2331 148.594 92.5874Z" fill="#1C9B83"/>
<path d="M144.285 91.9928L145.165 92.7273L147.54 91.6364" stroke="white" stroke-width="0.4" stroke-linecap="round" stroke-linejoin="round"/>
<path opacity="0.22" d="M150.195 101.275L168.656 103.635C168.791 103.645 168.926 103.611 169.033 103.539C169.14 103.467 169.211 103.362 169.231 103.247C169.251 103.132 169.219 103.014 169.141 102.919C169.063 102.823 168.946 102.757 168.813 102.733L150.352 100.373C150.281 100.361 150.207 100.36 150.136 100.373C150.065 100.385 149.997 100.41 149.938 100.446C149.878 100.481 149.828 100.527 149.789 100.58C149.751 100.632 149.726 100.691 149.715 100.753C149.704 100.814 149.709 100.877 149.727 100.937C149.746 100.997 149.779 101.054 149.824 101.103C149.868 101.151 149.925 101.192 149.988 101.222C150.052 101.251 150.123 101.269 150.195 101.275Z" fill="#1C9B83"/>
<path opacity="0.22" d="M149.11 103.761L167.571 106.907C167.707 106.921 167.842 106.875 167.948 106.779C168.055 106.683 168.126 106.544 168.146 106.39C168.166 106.236 168.134 106.08 168.056 105.952C167.978 105.825 167.861 105.736 167.728 105.705L149.267 102.558C149.196 102.541 149.122 102.541 149.051 102.558C148.98 102.574 148.913 102.607 148.853 102.655C148.793 102.702 148.743 102.763 148.705 102.833C148.666 102.904 148.641 102.983 148.63 103.065C148.62 103.147 148.624 103.23 148.642 103.31C148.661 103.391 148.694 103.466 148.739 103.531C148.784 103.596 148.84 103.65 148.904 103.689C148.967 103.729 149.038 103.753 149.11 103.761Z" fill="#1C9B83"/>
<path d="M146.43 101.779C146.366 102.206 146.178 102.604 145.889 102.923C145.601 103.242 145.224 103.468 144.808 103.572C144.391 103.676 143.954 103.654 143.55 103.507C143.146 103.361 142.795 103.098 142.54 102.751C142.285 102.404 142.138 101.989 142.118 101.557C142.098 101.126 142.205 100.699 142.426 100.329C142.647 99.9597 142.973 99.6643 143.361 99.4805C143.749 99.2967 144.183 99.2328 144.607 99.2969C144.889 99.339 145.16 99.4366 145.404 99.5842C145.649 99.7319 145.862 99.9265 146.031 100.157C146.2 100.388 146.323 100.65 146.391 100.928C146.46 101.206 146.473 101.496 146.43 101.779Z" fill="#1C9B83"/>
<path d="M143.2 100.72L143.789 101.455L145.37 100.364" stroke="white" stroke-width="0.4" stroke-linecap="round" stroke-linejoin="round"/>
<path opacity="0.22" d="M148.025 110.002L166.486 112.362C166.622 112.372 166.757 112.338 166.864 112.266C166.97 112.194 167.041 112.089 167.061 111.974C167.081 111.859 167.049 111.742 166.971 111.646C166.894 111.551 166.776 111.484 166.643 111.46L148.182 109.101C148.111 109.088 148.037 109.088 147.966 109.1C147.895 109.112 147.828 109.137 147.768 109.173C147.708 109.208 147.658 109.254 147.62 109.307C147.581 109.36 147.556 109.419 147.545 109.48C147.535 109.542 147.539 109.604 147.557 109.665C147.576 109.725 147.609 109.781 147.654 109.83C147.699 109.879 147.755 109.919 147.819 109.949C147.883 109.978 147.953 109.997 148.025 110.002Z" fill="#1C9B83"/>
<path opacity="0.22" d="M148.025 112.488L166.486 115.634C166.622 115.648 166.757 115.602 166.864 115.506C166.97 115.41 167.041 115.271 167.061 115.117C167.081 114.964 167.049 114.807 166.971 114.68C166.894 114.552 166.776 114.464 166.643 114.432L148.182 111.286C148.111 111.269 148.037 111.268 147.966 111.285C147.895 111.302 147.828 111.334 147.768 111.382C147.708 111.429 147.658 111.49 147.62 111.561C147.581 111.631 147.556 111.71 147.545 111.792C147.535 111.874 147.539 111.958 147.557 112.038C147.576 112.118 147.609 112.193 147.654 112.258C147.699 112.323 147.755 112.377 147.819 112.417C147.883 112.456 147.953 112.48 148.025 112.488Z" fill="#1C9B83"/>
<path d="M145.345 110.506C145.281 110.933 145.093 111.331 144.805 111.65C144.516 111.969 144.139 112.195 143.723 112.299C143.307 112.403 142.869 112.381 142.465 112.235C142.061 112.089 141.71 111.825 141.455 111.478C141.2 111.131 141.053 110.716 141.033 110.285C141.013 109.854 141.12 109.426 141.341 109.057C141.562 108.687 141.888 108.392 142.276 108.208C142.664 108.024 143.098 107.96 143.522 108.024C143.804 108.066 144.075 108.164 144.319 108.312C144.564 108.459 144.777 108.654 144.946 108.884C145.116 109.115 145.238 109.377 145.307 109.655C145.375 109.934 145.388 110.223 145.345 110.506Z" fill="#1C9B83"/>
<path d="M142.115 109.804L142.705 111.273L144.285 109.091" stroke="white" stroke-width="0.4" stroke-linecap="round" stroke-linejoin="round"/>
<path opacity="0.22" d="M146.94 119.033L165.401 122.179C165.537 122.193 165.672 122.147 165.779 122.051C165.886 121.955 165.956 121.816 165.976 121.663C165.996 121.509 165.964 121.353 165.886 121.225C165.809 121.098 165.691 121.009 165.558 120.977L147.097 117.831C147.026 117.814 146.953 117.814 146.881 117.83C146.81 117.847 146.743 117.88 146.683 117.927C146.624 117.975 146.573 118.036 146.535 118.106C146.497 118.177 146.471 118.255 146.461 118.337C146.45 118.419 146.454 118.503 146.473 118.583C146.491 118.663 146.524 118.738 146.569 118.803C146.614 118.869 146.67 118.923 146.734 118.962C146.798 119.002 146.868 119.026 146.94 119.033Z" fill="#1C9B83"/>
<path opacity="0.22" d="M146.94 122.002L165.401 124.362C165.537 124.372 165.672 124.338 165.779 124.266C165.886 124.194 165.956 124.09 165.976 123.974C165.996 123.859 165.964 123.742 165.886 123.646C165.809 123.551 165.691 123.484 165.558 123.46L147.097 121.101C147.026 121.088 146.953 121.088 146.881 121.1C146.81 121.113 146.743 121.137 146.683 121.173C146.624 121.208 146.573 121.254 146.535 121.307C146.497 121.36 146.471 121.419 146.461 121.48C146.45 121.542 146.454 121.605 146.473 121.665C146.491 121.725 146.524 121.781 146.569 121.83C146.614 121.879 146.67 121.919 146.734 121.949C146.798 121.979 146.868 121.997 146.94 122.002Z" fill="#1C9B83"/>
<path d="M144.254 119.234C144.174 119.66 143.939 120.058 143.578 120.378C143.217 120.697 142.747 120.923 142.226 121.027C141.706 121.131 141.159 121.108 140.654 120.962C140.15 120.816 139.71 120.553 139.391 120.205C139.073 119.858 138.889 119.443 138.864 119.012C138.839 118.581 138.973 118.154 139.249 117.784C139.526 117.414 139.932 117.119 140.418 116.935C140.903 116.751 141.445 116.687 141.975 116.751C142.328 116.794 142.667 116.891 142.972 117.039C143.278 117.186 143.544 117.381 143.755 117.612C143.967 117.842 144.12 118.104 144.206 118.383C144.291 118.661 144.308 118.95 144.254 119.234Z" fill="#1C9B83"/>
<path d="M141.031 119.264L141.62 120L143.2 118.909" stroke="white" stroke-width="0.4" stroke-linecap="round" stroke-linejoin="round"/>
<path opacity="0.22" d="M147.485 84.605L167.972 87.6803C168.164 87.7091 168.337 87.8133 168.452 87.9701C168.568 88.1269 168.616 88.3234 168.588 88.5163L168.572 88.6221C168.558 88.7182 168.525 88.8105 168.475 88.8938C168.425 88.9771 168.36 89.0498 168.282 89.1076C168.204 89.1654 168.116 89.2073 168.023 89.2308C167.929 89.2543 167.831 89.259 167.736 89.2447L147.253 86.1701C147.061 86.1413 146.889 86.037 146.773 85.8803C146.658 85.7235 146.609 85.527 146.638 85.3341L146.653 85.2283C146.667 85.1323 146.699 85.04 146.749 84.9566C146.798 84.8733 146.863 84.8006 146.941 84.7427C147.018 84.6847 147.106 84.6427 147.199 84.6191C147.293 84.5955 147.39 84.5907 147.485 84.605Z" fill="#1C9B83"/>
<path d="M56.8244 167.995L121.171 164.361C121.519 164.342 121.86 164.253 122.174 164.099C122.489 163.945 122.77 163.729 123.002 163.464C123.234 163.2 123.412 162.891 123.526 162.556C123.641 162.22 123.689 161.865 123.668 161.511L121.722 125.819C121.702 125.464 121.614 125.118 121.463 124.798C121.311 124.479 121.099 124.193 120.839 123.957C120.579 123.721 120.276 123.539 119.947 123.423C119.618 123.306 119.269 123.257 118.921 123.277L54.5747 126.916C54.2265 126.935 53.8856 127.024 53.5714 127.178C53.2572 127.332 52.9761 127.548 52.744 127.813C52.512 128.078 52.3336 128.386 52.2193 128.722C52.1049 129.057 52.0567 129.412 52.0775 129.766L54.0239 165.454C54.043 165.808 54.1306 166.155 54.2818 166.475C54.4331 166.795 54.6449 167.081 54.9051 167.317C55.1654 167.553 55.4689 167.735 55.7983 167.851C56.1276 167.967 56.4764 168.016 56.8244 167.995Z" fill="#1C9B83"/>
<path d="M154.07 74.2255L164.653 75.8141C165.467 75.9363 166.199 76.3786 166.689 77.0437C167.179 77.7088 167.385 78.5423 167.264 79.3608L166.944 81.5166L150.218 79.006L150.538 76.8502C150.66 76.0317 151.1 75.2953 151.761 74.803C152.423 74.3106 153.251 74.1026 154.065 74.2248L154.07 74.2255Z" fill="#FFC674"/>
<path d="M58.7781 165.814L120.2 162.357C120.532 162.339 120.858 162.254 121.158 162.107C121.457 161.961 121.726 161.756 121.947 161.504C122.169 161.252 122.339 160.958 122.448 160.639C122.557 160.32 122.603 159.983 122.584 159.646L120.726 125.694C120.707 125.358 120.623 125.028 120.478 124.724C120.334 124.42 120.132 124.148 119.883 123.924C119.635 123.699 119.345 123.526 119.031 123.415C118.717 123.305 118.385 123.257 118.052 123.277L56.6306 126.738C56.2983 126.757 55.9729 126.841 55.673 126.988C55.3731 127.134 55.1047 127.339 54.8832 127.591C54.6617 127.843 54.4915 128.137 54.3823 128.456C54.2731 128.775 54.2271 129.112 54.247 129.449L56.1049 163.396C56.1231 163.733 56.2068 164.063 56.3511 164.367C56.4955 164.672 56.6977 164.944 56.9461 165.168C57.1945 165.393 57.4842 165.566 57.7986 165.676C58.113 165.787 58.4459 165.834 58.7781 165.814Z" fill="white"/>
<path d="M54.5472 135.273L120.418 131.394L120.123 125.78C120.104 125.431 120.021 125.09 119.877 124.775C119.734 124.461 119.534 124.179 119.288 123.947C119.042 123.714 118.755 123.535 118.444 123.421C118.132 123.306 117.803 123.257 117.474 123.277L56.609 126.861C56.2796 126.88 55.9572 126.968 55.66 127.119C55.3628 127.271 55.0969 127.483 54.8774 127.744C54.6579 128.005 54.4892 128.309 54.381 128.639C54.2728 128.97 54.2273 129.319 54.247 129.668L54.5472 135.273Z" fill="#1C9B83"/>
<path opacity="0.22" d="M60.5421 141.813L88.2112 140.204C88.4209 140.191 88.6172 140.092 88.7569 139.928C88.8967 139.763 88.9684 139.548 88.9564 139.328C88.9443 139.108 88.8495 138.902 88.6927 138.756C88.5359 138.609 88.33 138.534 88.1203 138.547L60.4557 140.161C60.3484 140.161 60.2422 140.184 60.1437 140.229C60.0452 140.274 59.9564 140.339 59.8827 140.421C59.809 140.502 59.7519 140.599 59.715 140.705C59.6781 140.81 59.6621 140.923 59.6679 141.035C59.6738 141.147 59.7014 141.257 59.7491 141.358C59.7968 141.459 59.8636 141.548 59.9454 141.621C60.0272 141.694 60.1222 141.748 60.2248 141.782C60.3274 141.815 60.4353 141.825 60.5421 141.813Z" fill="#1C9B83"/>
<path opacity="0.22" d="M61.558 150.544L88.2758 148.928C88.4703 148.905 88.6493 148.802 88.7759 148.64C88.9026 148.478 88.9672 148.269 88.9566 148.057C88.9459 147.845 88.8606 147.645 88.7185 147.499C88.5763 147.353 88.388 147.272 88.1924 147.273L61.4747 148.885C61.2721 148.897 61.0823 148.996 60.9469 149.16C60.8115 149.324 60.7417 149.54 60.7527 149.76C60.7638 149.98 60.8548 150.186 61.0059 150.333C61.1569 150.48 61.3555 150.556 61.558 150.544Z" fill="#1C9B83"/>
<path opacity="0.22" d="M61.518 146.182L88.2748 144.567C88.4696 144.544 88.6488 144.441 88.7757 144.279C88.9025 144.116 88.9673 143.908 88.9565 143.695C88.9458 143.482 88.8605 143.282 88.7181 143.136C88.5757 142.99 88.3872 142.909 88.1913 142.909L61.4345 144.524C61.2397 144.547 61.0604 144.65 60.9336 144.812C60.8068 144.974 60.742 145.183 60.7527 145.396C60.7634 145.609 60.8488 145.809 60.9912 145.955C61.1335 146.101 61.3221 146.182 61.518 146.182Z" fill="#1C9B83"/>
<path opacity="0.22" d="M61.5225 154.909L88.2749 153.294C88.4696 153.271 88.6489 153.168 88.7757 153.006C88.9025 152.844 88.9673 152.635 88.9565 152.422C88.9458 152.21 88.8605 152.01 88.7181 151.863C88.5758 151.717 88.3873 151.636 88.1914 151.636L61.4346 153.251C61.2394 153.274 61.0598 153.377 60.9329 153.54C60.806 153.703 60.7416 153.913 60.7529 154.126C60.7641 154.339 60.8503 154.539 60.9936 154.685C61.1369 154.83 61.3262 154.911 61.5225 154.909Z" fill="#1C9B83"/>
<path opacity="0.22" d="M61.6257 159.268L89.2592 157.658C89.3662 157.657 89.4719 157.633 89.5699 157.588C89.6679 157.543 89.7562 157.477 89.8293 157.395C89.9024 157.313 89.9589 157.217 89.9953 157.111C90.0318 157.006 90.0474 156.893 90.0412 156.781C90.0351 156.669 90.0073 156.559 89.9595 156.459C89.9118 156.358 89.8451 156.269 89.7634 156.197C89.6818 156.124 89.587 156.07 89.4847 156.037C89.3824 156.004 89.2748 155.993 89.1685 156.005L61.5349 157.615C61.4279 157.616 61.3222 157.64 61.2242 157.685C61.1262 157.73 61.038 157.795 60.9649 157.877C60.8917 157.959 60.8352 158.056 60.7988 158.162C60.7624 158.267 60.7467 158.379 60.7529 158.492C60.7591 158.604 60.7869 158.713 60.8346 158.814C60.8824 158.914 60.9491 159.004 61.0307 159.076C61.1123 159.149 61.2071 159.203 61.3094 159.236C61.4117 159.269 61.5193 159.28 61.6257 159.268Z" fill="#1C9B83"/>
<path opacity="0.22" d="M113.561 137.645L94.4322 138.714C93.408 138.771 92.6239 139.653 92.6808 140.682L93.4787 155.125C93.5356 156.155 94.412 156.943 95.4362 156.886L114.565 155.817C115.589 155.76 116.373 154.879 116.316 153.849L115.518 139.407C115.461 138.377 114.585 137.588 113.561 137.645Z" fill="#1C9B83"/>
<path opacity="0.5" d="M94.382 141.818L113.909 140.727" stroke="white" stroke-width="0.85" stroke-miterlimit="10" stroke-linecap="round"/>
<path opacity="0.5" d="M95.4668 144L113.909 142.909" stroke="white" stroke-width="0.85" stroke-miterlimit="10" stroke-linecap="round"/>
<path opacity="0.5" d="M95.4668 146.182L113.909 145.091" stroke="white" stroke-width="0.85" stroke-miterlimit="10" stroke-linecap="round"/>
<path opacity="0.5" d="M95.4668 149.455L113.909 148.364" stroke="white" stroke-width="0.85" stroke-miterlimit="10" stroke-linecap="round"/>
<path opacity="0.5" d="M95.4668 151.636L113.909 150.545" stroke="white" stroke-width="0.85" stroke-miterlimit="10" stroke-linecap="round"/>
<path opacity="0.5" d="M95.4668 153.818L113.909 152.727" stroke="white" stroke-width="0.85" stroke-miterlimit="10" stroke-linecap="round"/>
<path d="M95.9986 153.818C95.8872 153.823 95.7772 153.792 95.6854 153.73C95.5751 153.656 95.4995 153.543 95.4752 153.414C95.4509 153.286 95.4798 153.153 95.5556 153.045L98.5132 148.813C98.5568 148.752 98.6141 148.701 98.6808 148.664C98.7475 148.627 98.8219 148.605 98.8985 148.6C98.975 148.595 99.0517 148.607 99.1229 148.635C99.1941 148.663 99.2579 148.706 99.3096 148.761L101.22 150.807L104.648 145.275C104.687 145.211 104.741 145.156 104.805 145.115C104.87 145.074 104.943 145.048 105.019 145.038C105.096 145.029 105.173 145.037 105.246 145.061C105.319 145.086 105.385 145.126 105.439 145.179L107.525 147.199L111.914 140.917C111.994 140.818 112.109 140.752 112.237 140.733C112.364 140.714 112.495 140.743 112.601 140.814C112.708 140.884 112.783 140.992 112.812 141.115C112.84 141.238 112.82 141.366 112.755 141.475L108.017 148.251C107.975 148.311 107.92 148.361 107.856 148.398C107.792 148.435 107.72 148.458 107.645 148.464C107.571 148.473 107.495 148.464 107.424 148.439C107.354 148.414 107.29 148.373 107.238 148.32L105.184 146.327L101.739 151.889C101.698 151.955 101.642 152.011 101.575 152.052C101.509 152.092 101.433 152.118 101.354 152.125C101.276 152.134 101.196 152.124 101.122 152.097C101.048 152.07 100.982 152.025 100.929 151.968L98.9919 149.891L96.3923 153.604C96.3479 153.667 96.2893 153.718 96.221 153.755C96.1527 153.793 96.0766 153.814 95.9986 153.818Z" fill="#1C9B83"/>
<path d="M112.483 142.908C112.397 142.916 112.313 142.872 112.245 142.784C112.177 142.695 112.13 142.569 112.113 142.428L111.943 140.94L111.052 141.225C110.962 141.241 110.872 141.199 110.8 141.11C110.728 141.02 110.678 140.888 110.661 140.741C110.644 140.593 110.661 140.44 110.708 140.312C110.755 140.184 110.829 140.09 110.916 140.049L112.158 139.648C112.204 139.632 112.252 139.633 112.298 139.648C112.344 139.664 112.388 139.695 112.427 139.739C112.466 139.783 112.5 139.84 112.526 139.905C112.551 139.971 112.569 140.045 112.578 140.123L112.818 142.201C112.836 142.357 112.816 142.518 112.763 142.65C112.709 142.781 112.627 142.872 112.534 142.903L112.483 142.908Z" fill="#1C9B83"/>
<path d="M3.46237 56.1736L66.3753 37.3257L78.9079 79.6273C78.9556 79.7881 78.9713 79.9568 78.9541 80.1236C78.9369 80.2905 78.8872 80.4521 78.808 80.5993C78.7289 80.7465 78.6217 80.8765 78.4928 80.9818C78.3638 81.0871 78.2156 81.1658 78.0565 81.2135L17.5708 99.3342C17.2497 99.4304 16.9032 99.3946 16.6076 99.2337C16.3119 99.0729 16.0913 98.8001 15.995 98.4751L3.46237 56.1736Z" fill="#F4F7FA" stroke="#1C9B83"/>
<path opacity="0.6" d="M49.8924 89.5123L17.1281 99.1991C16.6768 99.3327 16.1906 99.2832 15.776 99.0616C15.3614 98.8399 15.0523 98.4642 14.9164 98.0167L2.16968 55.4839L20.1358 50.1818C19.5605 59.1839 22.2433 68.0939 27.7009 75.3068C33.1585 82.5196 41.032 87.5611 49.9031 89.5229L49.8924 89.5123Z" fill="#B0DBD2"/>
<path d="M67.2607 36.7433L2.36271 55.6363L0.20591 48.4941C0.0211615 47.892 -0.040134 47.2603 0.0255356 46.635C0.0912052 46.0097 0.282549 45.4032 0.588601 44.8503C0.894653 44.2974 1.3094 43.8089 1.80906 43.4129C2.30873 43.0168 2.88349 42.721 3.50042 42.5423L59.0379 26.3829C59.6543 26.2024 60.3011 26.1426 60.9412 26.2067C61.5813 26.2709 62.2021 26.4578 62.7682 26.7567C63.3342 27.0557 63.8342 27.4608 64.2397 27.9489C64.6451 28.437 64.948 28.9985 65.1309 29.6011L67.2607 36.7433Z" fill="#FFC444"/>
<path d="M10.5245 43.9685C10.0516 43.7102 9.5125 43.5985 8.97593 43.6477C8.43937 43.6969 7.92958 43.9046 7.51146 44.2446C7.09335 44.5845 6.78583 45.0412 6.62807 45.5566C6.4703 46.0719 6.46942 46.6226 6.62555 47.1384C6.72215 47.4785 6.88501 47.7962 7.10475 48.0731C7.32449 48.3501 7.59678 48.5809 7.90598 48.7522C8.38162 49.0151 8.92519 49.1291 9.46634 49.0796C10.0075 49.03 10.5213 48.8191 10.9413 48.4742C11.3613 48.1293 11.6682 47.6662 11.8221 47.1449C11.9761 46.6236 11.9701 46.0681 11.8049 45.5502C11.6023 44.8752 11.1424 44.3071 10.5245 43.9685Z" fill="#FFB448"/>
<path d="M17.8373 41.5195C17.5661 41.5776 17.3129 41.6755 17.0921 41.8077C16.8713 41.9398 16.6873 42.1036 16.5508 42.2895C16.3045 42.6202 16.2182 43.005 16.3065 43.3784C16.3948 43.7517 16.6523 44.0903 17.035 44.3363C17.4177 44.5823 17.9018 44.7204 18.4045 44.727C18.9072 44.7336 19.3974 44.6084 19.7913 44.3726C20.1851 44.1369 20.4582 43.8053 20.5638 43.4345C20.6694 43.0638 20.6009 42.6769 20.3702 42.3399C20.1395 42.003 19.7607 41.737 19.2987 41.5873C18.8367 41.4377 18.3201 41.4137 17.8373 41.5195Z" fill="#FFB448"/>
<path d="M38.7178 35.2334C38.2457 34.9788 37.7094 34.8703 37.1762 34.9215C36.6431 34.9727 36.1368 35.1813 35.721 35.5211C35.3051 35.8609 34.9981 36.3168 34.8386 36.8316C34.6791 37.3465 34.6741 37.8973 34.8243 38.4149C34.9789 38.9322 35.282 39.3918 35.6955 39.7359C36.1089 40.0801 36.6142 40.2934 37.1478 40.3491C37.6813 40.4047 38.2193 40.3002 38.6941 40.0487C39.1688 39.7972 39.559 39.4099 39.8156 38.9355C40.156 38.2977 40.2315 37.55 40.0258 36.8562C39.82 36.1624 39.3497 35.5789 38.7178 35.2334Z" fill="#FFB448"/>
<path d="M29.9803 38.3803C29.335 38.1474 28.6024 38.1183 27.9311 38.2988C27.2598 38.4794 26.7002 38.8561 26.366 39.3525C26.0318 39.8488 25.948 40.4276 26.1317 40.9713C26.3153 41.5149 26.7526 41.9827 27.3548 42.2795C27.758 42.4529 28.209 42.5442 28.6675 42.5454C28.9382 42.5445 29.2076 42.5147 29.4683 42.4568C30.1769 42.2879 30.7723 41.9028 31.1242 41.386C31.476 40.8691 31.5556 40.2626 31.3455 39.6992C31.2404 39.4181 31.0655 39.1565 30.831 38.93C30.5965 38.7035 30.3072 38.5166 29.9803 38.3803Z" fill="#FFB448"/>
<path d="M47.9654 32.9913C47.7773 32.8544 47.5709 32.7687 47.358 32.739C47.1451 32.7093 46.9299 32.7362 46.7248 32.8182C46.5197 32.9003 46.3287 33.0357 46.1628 33.2169C45.9969 33.398 45.8594 33.6213 45.7581 33.8738C45.5538 34.383 45.5084 34.9798 45.632 35.5337C45.7555 36.0876 46.0379 36.5534 46.4172 36.8293C46.6527 36.9997 46.916 37.0896 47.1837 37.0909C47.342 37.0901 47.4994 37.059 47.6512 36.9986C47.9608 36.8768 48.2364 36.6344 48.4428 36.3021C48.6492 35.9698 48.7769 35.5627 48.8098 35.1328C48.8427 34.7029 48.7792 34.2696 48.6275 33.8882C48.4757 33.5068 48.2425 33.1945 47.9577 32.9913H47.9654Z" fill="#FFB448"/>
<path d="M59.5518 31.4018C59.3452 30.7092 58.8743 30.1273 58.2421 29.7834C57.6099 29.4395 56.8681 29.3617 56.179 29.5671C55.8378 29.6694 55.52 29.8384 55.2437 30.0643C54.9674 30.2903 54.7381 30.5687 54.5687 30.8839C54.3994 31.199 54.2934 31.5446 54.2568 31.9009C54.2203 32.2572 54.2538 32.6173 54.3555 32.9606C54.4572 33.3039 54.6252 33.6237 54.8497 33.9017C55.0743 34.1797 55.3511 34.4105 55.6643 34.5808C55.9775 34.7512 56.3209 34.8578 56.6751 34.8946C57.0292 34.9314 57.3871 34.8977 57.7283 34.7954C58.0701 34.6939 58.3885 34.5255 58.6654 34.2998C58.9422 34.074 59.172 33.7955 59.3414 33.4801C59.5109 33.1647 59.6167 32.8187 59.6528 32.4621C59.6889 32.1054 59.6546 31.745 59.5518 31.4018Z" fill="#FFB448"/>
<path d="M9.22648 47.9999C8.87478 47.9992 8.53267 47.8932 8.25074 47.6978C7.96881 47.5023 7.762 47.2278 7.66091 46.9146L5.49167 40.1314C5.43069 39.9403 5.4108 39.7399 5.43314 39.5416C5.45548 39.3434 5.51961 39.1511 5.62186 38.9759C5.72412 38.8007 5.8625 38.6459 6.02911 38.5204C6.19571 38.3949 6.38728 38.3011 6.59287 38.2444C6.79847 38.1877 7.01406 38.1693 7.22734 38.19C7.44062 38.2108 7.64741 38.2704 7.83591 38.3655C8.0244 38.4605 8.19091 38.5891 8.32593 38.744C8.46095 38.8989 8.56182 39.077 8.6228 39.2681L10.7854 46.0513C10.8547 46.2771 10.8671 46.5148 10.8217 46.7458C10.7763 46.9768 10.6742 47.195 10.5235 47.3834C10.3727 47.5718 10.1773 47.7255 9.95239 47.8324C9.72747 47.9393 9.47908 47.9966 9.22648 47.9999Z" fill="#65C1B0"/>
<path d="M18.2277 43.6362C17.9493 43.6356 17.6785 43.5543 17.4552 43.4042C17.2319 43.2541 17.068 43.0431 16.9876 42.8025L15.2621 37.5623C15.2035 37.4125 15.1792 37.2535 15.1907 37.0949C15.2023 36.9364 15.2494 36.7816 15.3293 36.64C15.4092 36.4984 15.5202 36.373 15.6554 36.2713C15.7907 36.1696 15.9475 36.0939 16.1162 36.0486C16.2849 36.0033 16.4621 35.9895 16.6369 36.0079C16.8117 36.0264 16.9805 36.0768 17.1331 36.156C17.2857 36.2352 17.4189 36.3416 17.5245 36.4687C17.6301 36.5958 17.706 36.741 17.7475 36.8954L19.4731 42.1356C19.5715 42.4331 19.5351 42.7537 19.3718 43.0271C19.2086 43.3004 18.9318 43.504 18.6024 43.5933C18.4804 43.6239 18.3542 43.6383 18.2277 43.6362Z" fill="#65C1B0"/>
<path d="M27.9814 41.4543C27.7002 41.454 27.4265 41.3718 27.2006 41.2198C26.9747 41.0678 26.8086 40.854 26.7266 40.6099L24.9933 35.3025C24.9085 35.0053 24.9539 34.6897 25.1201 34.4222C25.2863 34.1547 25.5602 33.9561 25.8844 33.868C26.2086 33.78 26.5577 33.8093 26.8585 33.95C27.1594 34.0906 27.3884 34.3316 27.4976 34.6222L29.2362 39.9296C29.3346 40.2291 29.2994 40.5516 29.1383 40.8277C28.9772 41.1039 28.703 41.3115 28.3749 41.406C28.2472 41.4405 28.1145 41.4568 27.9814 41.4543Z" fill="#65C1B0"/>
<path d="M37.7655 38.1817C37.481 38.1846 37.2032 38.0916 36.9741 37.9167C36.745 37.7418 36.5769 37.4944 36.4951 37.2118L34.7569 31.1499C34.6722 30.8104 34.7176 30.45 34.8837 30.1445C35.0499 29.8389 35.3237 29.6121 35.6478 29.5115C35.9719 29.4109 36.321 29.4444 36.6217 29.6051C36.9224 29.7657 37.1514 30.0409 37.2605 30.3729L38.9987 36.4348C39.0577 36.6368 39.0702 36.8502 39.0352 37.0581C39.0003 37.266 38.9188 37.4625 38.7973 37.6318C38.6759 37.8011 38.5178 37.9385 38.3359 38.0331C38.1539 38.1276 37.9531 38.1767 37.7496 38.1762L37.7655 38.1817Z" fill="#65C1B0"/>
<path d="M47.1817 36C46.8297 36.0008 46.4869 35.9066 46.2051 35.7317C45.9233 35.5567 45.7178 35.3104 45.6197 35.0301L43.4462 28.9681C43.3402 28.6286 43.397 28.2682 43.6047 27.9627C43.8125 27.6572 44.1549 27.4303 44.5602 27.3297C44.9655 27.2291 45.402 27.2627 45.778 27.4233C46.1541 27.5839 46.4404 27.8591 46.5769 28.1911L48.7504 34.2531C48.8117 34.4239 48.8317 34.603 48.8094 34.7802C48.7871 34.9574 48.7228 35.1293 48.6204 35.2859C48.5179 35.4425 48.3792 35.5808 48.2122 35.693C48.0451 35.8051 47.8531 35.8889 47.647 35.9394C47.4964 35.9784 47.3396 35.9989 47.1817 36Z" fill="#65C1B0"/>
<path d="M56.5217 33.8182C56.3108 33.8174 56.1058 33.7115 55.9368 33.516C55.7678 33.3206 55.6438 33.046 55.5832 32.7329L54.2829 25.9496C54.2463 25.7585 54.2344 25.5581 54.2478 25.3599C54.2612 25.1616 54.2996 24.9694 54.3609 24.7942C54.4222 24.6189 54.5052 24.4641 54.6051 24.3386C54.7049 24.2131 54.8198 24.1194 54.943 24.0627C55.0662 24.006 55.1955 23.9875 55.3233 24.0083C55.4512 24.029 55.5751 24.0886 55.6881 24.1837C55.8011 24.2787 55.9009 24.4074 55.9819 24.5623C56.0628 24.7171 56.1233 24.8952 56.1598 25.0863L57.4561 31.8695C57.5303 32.2547 57.5029 32.6697 57.3798 33.0235C57.2568 33.3773 57.0483 33.641 56.8 33.7565C56.7097 33.7981 56.6159 33.8189 56.5217 33.8182Z" fill="#65C1B0"/>
<path opacity="0.22" d="M21.9836 57.5729L12.8699 60.3414L15.3046 68.4463L24.4183 65.6778L21.9836 57.5729Z" fill="#1C9B83"/>
<path opacity="0.22" d="M34.678 53.5565L25.5798 56.2822L27.9769 64.3733L37.0752 61.6476L34.678 53.5565Z" fill="#1C9B83"/>
<path opacity="0.22" d="M47.9516 49.5804L38.8533 52.3062L41.2505 60.3972L50.3487 57.6715L47.9516 49.5804Z" fill="#1C9B83"/>
<path d="M41.7016 54.5454C41.5877 54.5485 41.4767 54.4991 41.3897 54.4066C41.3027 54.3141 41.2456 54.1849 41.2292 54.0432C41.2128 53.9015 41.2382 53.7571 41.3006 53.6373C41.363 53.5175 41.4582 53.4305 41.5682 53.3927L47.13 51.2971C47.2495 51.2526 47.3782 51.2696 47.4877 51.3443C47.5972 51.4189 47.6786 51.5452 47.714 51.6953C47.7494 51.8453 47.7359 52.0069 47.6765 52.1445C47.617 52.282 47.5165 52.3843 47.397 52.4287L41.8351 54.5244C41.7915 54.5381 41.7467 54.5452 41.7016 54.5454Z" fill="#1C9B83"/>
<path d="M41.6861 56.7272C41.5746 56.7255 41.4675 56.6908 41.3839 56.6292C41.3002 56.5677 41.2454 56.4833 41.2293 56.3912C41.2131 56.2991 41.2367 56.2052 41.2957 56.1262C41.3548 56.0472 41.4455 55.9883 41.5517 55.9599L47.1539 54.5564C47.2704 54.5329 47.3932 54.5474 47.4973 54.597C47.6014 54.6465 47.679 54.7274 47.7141 54.823C47.7492 54.9229 47.736 55.0303 47.6774 55.1222C47.6187 55.214 47.5193 55.283 47.4004 55.3143L41.7982 56.7179C41.7613 56.7241 41.7237 56.7273 41.6861 56.7272Z" fill="#1C9B83"/>
<path d="M42.6918 57.8182C42.6078 57.8184 42.5261 57.791 42.4589 57.74C42.3917 57.689 42.3428 57.6173 42.3195 57.5356C42.2971 57.4384 42.3114 57.3362 42.3596 57.2491C42.4078 57.162 42.4865 57.0962 42.5801 57.0648L47.2339 55.6522C47.3338 55.6229 47.4412 55.6346 47.5326 55.6848C47.6241 55.7351 47.6923 55.8198 47.7225 55.9206C47.7458 56.0185 47.7314 56.1217 47.6821 56.2092C47.6328 56.2967 47.5524 56.3619 47.4572 56.3914L42.8035 57.804C42.7669 57.813 42.7294 57.8177 42.6918 57.8182Z" fill="#1C9B83"/>
<path opacity="0.22" d="M61.2315 45.6037L52.1332 48.3295L54.5303 56.4205L63.6286 53.6948L61.2315 45.6037Z" fill="#1C9B83"/>
<path opacity="0.22" d="M24.8435 69.144L15.7452 71.8698L18.1423 79.9608L27.2406 77.2351L24.8435 69.144Z" fill="#1C9B83"/>
<path opacity="0.22" d="M38.1191 65.1725L29.0208 67.8982L31.4179 75.9892L40.5162 73.2635L38.1191 65.1725Z" fill="#1C9B83"/>
<path opacity="0.22" d="M51.3969 61.1958L42.2986 63.9216L44.6957 72.0126L53.794 69.2869L51.3969 61.1958Z" fill="#1C9B83"/>
<path opacity="0.22" d="M65.3194 57.064L56.2056 59.8325L58.6404 67.9373L67.7541 65.1689L65.3194 57.064Z" fill="#1C9B83"/>
<path opacity="0.22" d="M28.2346 80.5954L19.1364 83.3211L21.5335 91.4122L30.6318 88.6865L28.2346 80.5954Z" fill="#1C9B83"/>
<path opacity="0.22" d="M41.5092 76.6188L32.4109 79.3445L34.8081 87.4356L43.9064 84.7098L41.5092 76.6188Z" fill="#1C9B83"/>
<path opacity="0.22" d="M54.7891 72.6423L45.6909 75.368L48.088 83.4591L57.1863 80.7334L54.7891 72.6423Z" fill="#1C9B83"/>
<path opacity="0.22" d="M68.0616 68.6657L58.9633 71.3914L61.3604 79.4825L70.4587 76.7568L68.0616 68.6657Z" fill="#1C9B83"/>
<path d="M35.1927 81.818C35.0787 81.8211 34.9677 81.7718 34.8807 81.6793C34.7936 81.5868 34.7365 81.4575 34.7201 81.3158C34.7037 81.1741 34.7291 81.0298 34.7915 80.91C34.854 80.7902 34.9492 80.7032 35.0592 80.6654L40.6234 78.5699C40.6822 78.5479 40.7439 78.5406 40.8049 78.5485C40.866 78.5564 40.9252 78.5794 40.9792 78.616C41.0332 78.6527 41.0809 78.7023 41.1196 78.7621C41.1583 78.8219 41.1873 78.8907 41.2048 78.9645C41.2224 79.0384 41.2281 79.1158 41.2218 79.1925C41.2155 79.2691 41.1973 79.3435 41.1681 79.4112C41.1389 79.479 41.0993 79.5389 41.0517 79.5875C41.0041 79.6361 40.9493 79.6725 40.8905 79.6945L35.3263 81.7901C35.2828 81.8062 35.238 81.8155 35.1927 81.818Z" fill="#1C9B83"/>
<path d="M35.1946 82.909C35.0801 82.9121 34.9687 82.8626 34.8813 82.7699C34.7939 82.6771 34.7366 82.5475 34.7201 82.4055C34.7036 82.2634 34.7291 82.1187 34.7918 81.9985C34.8545 81.8784 34.9501 81.7912 35.0605 81.7533L40.6457 79.652C40.761 79.6182 40.8823 79.6398 40.9856 79.7123C41.0889 79.7849 41.1669 79.9033 41.2042 80.0442C41.2222 80.1187 41.2282 80.197 41.2219 80.2744C41.2156 80.3518 41.1971 80.4269 41.1675 80.4953C41.1379 80.5637 41.0977 80.6241 41.0494 80.6729C41.001 80.7217 40.9455 80.758 40.8859 80.7797L35.3007 82.881C35.2661 82.8946 35.2306 82.904 35.1946 82.909Z" fill="#1C9B83"/>
<path d="M36.1925 85.0907C36.1086 85.0898 36.027 85.0623 35.9596 85.0121C35.8921 84.962 35.8421 84.8917 35.8167 84.8114C35.8018 84.7619 35.7968 84.7099 35.8021 84.6584C35.8073 84.607 35.8227 84.5571 35.8473 84.5116C35.8719 84.4661 35.9052 84.426 35.9453 84.3936C35.9855 84.3611 36.0317 84.337 36.0812 84.3226L40.7203 82.926C40.8193 82.8958 40.9263 82.9063 41.0176 82.9551C41.109 83.004 41.1772 83.0873 41.2074 83.1867C41.2375 83.2861 41.2271 83.3935 41.1784 83.4851C41.1297 83.5768 41.0466 83.6453 40.9476 83.6755L36.3085 85.0721C36.2714 85.0856 36.232 85.092 36.1925 85.0907Z" fill="#1C9B83"/>
<path d="M47.8047 68.6998C47.6701 68.75 47.5257 68.731 47.4018 68.6467L45.7765 67.5088C45.6746 67.4114 45.6034 67.2698 45.576 67.1101C45.5487 66.9504 45.5672 66.7834 45.6279 66.6398C45.6887 66.4962 45.7877 66.3858 45.9067 66.3288C46.0257 66.2718 46.1567 66.2721 46.2756 66.3297L47.443 67.1433L48.9538 63.5468C49.0294 63.4155 49.1394 63.3238 49.2634 63.2886C49.3874 63.2535 49.5171 63.2772 49.6286 63.3554C49.7401 63.4337 49.8258 63.5612 49.8701 63.7145C49.9144 63.8677 49.9141 64.0364 49.8694 64.1895L48.1068 68.3873C48.0403 68.5368 47.9324 68.6483 47.8047 68.6998Z" fill="#1C9B83"/>
<path d="M17.9624 64.3473C17.7958 64.377 17.6169 64.3658 17.4636 64.316L15.4514 63.6436C15.3252 63.5861 15.237 63.5024 15.2032 63.408C15.1694 63.3137 15.1922 63.215 15.2674 63.1302C15.3426 63.0453 15.4652 62.9801 15.6126 62.9464C15.7599 62.9127 15.9221 62.9129 16.0692 62.9469L17.5146 63.4277L19.3851 61.3026C19.4255 61.2561 19.4805 61.215 19.5469 61.1816C19.6133 61.1482 19.6897 61.1231 19.7719 61.1079C19.854 61.0927 19.9402 61.0876 20.0256 61.0929C20.111 61.0982 20.1938 61.1139 20.2693 61.1389C20.4214 61.1904 20.5345 61.2766 20.5843 61.3789C20.6341 61.4812 20.6167 61.5914 20.5357 61.6858L18.3535 64.1453C18.3143 64.1937 18.2594 64.2366 18.1921 64.2713C18.1248 64.3061 18.0466 64.332 17.9624 64.3473Z" fill="#1C9B83"/>
<path d="M60.2562 64.3369C60.0905 64.3858 59.9127 64.3673 59.7601 64.2853L57.7591 63.1784C57.6335 63.0836 57.5459 62.9458 57.5122 62.7905C57.4786 62.6352 57.5013 62.4727 57.5761 62.333C57.6509 62.1934 57.7728 62.0859 57.9194 62.0305C58.0659 61.975 58.2272 61.9753 58.3735 62.0313L59.8109 62.8228L61.671 59.3243C61.705 59.2375 61.7568 59.159 61.8229 59.0941C61.889 59.0292 61.9679 58.9793 62.0544 58.9478C62.1408 58.9163 62.2329 58.9038 62.3245 58.9112C62.416 58.9186 62.505 58.9457 62.5855 58.9908C62.666 59.0358 62.7361 59.0977 62.7913 59.1724C62.8465 59.2472 62.8854 59.333 62.9056 59.4241C62.9257 59.5153 62.9265 59.6098 62.9081 59.7014C62.8896 59.7929 62.8522 59.8794 62.7983 59.9552L60.6282 64.0329C60.5463 64.1783 60.4134 64.2869 60.2562 64.3369Z" fill="#1C9B83"/>
<path d="M141.845 24.65L145.427 28.2521L147.568 26.0993L143.986 22.4972L141.845 24.65Z" fill="#AADDD4"/>
<path d="M143.774 22.8528L147.215 26.3133C148.252 27.3562 149.934 27.3562 150.971 26.3133L151.656 25.624C152.693 24.5811 152.693 22.8901 151.656 21.8472L148.215 18.3867C147.178 17.3438 145.496 17.3438 144.459 18.3867L143.774 19.076C142.736 20.1189 142.736 21.8098 143.774 22.8528Z" fill="#1C9B83"/>
<path d="M107.4 14.1818L117.164 14.1818V9.81813H107.4V14.1818Z" fill="#AADDD4"/>
<path d="M105.22 9.81818L120.429 9.81818C121.621 9.81818 122.588 8.89079 122.588 7.7468V2.07137C122.588 0.927377 121.621 -5.72205e-06 120.429 -5.72205e-06L105.22 -5.72205e-06C104.028 -5.72205e-06 103.061 0.927377 103.061 2.07137V7.7468C103.061 8.89079 104.028 9.81818 105.22 9.81818Z" fill="#1C9B83"/>
<path d="M123.048 103.222C147.776 97.1233 162.905 72.0224 156.84 47.1571C150.776 22.2918 125.814 7.07814 101.087 13.1764C76.3601 19.2747 61.2309 44.3757 67.2954 69.241C73.3598 94.1063 98.3213 109.32 123.048 103.222Z" fill="#1C9B83"/>
<path d="M139.82 86.0923C155.145 70.682 155.145 45.6969 139.82 30.2866C124.495 14.8763 99.649 14.8763 84.3243 30.2866C68.9996 45.6969 68.9996 70.682 84.3243 86.0923C99.649 101.503 124.495 101.503 139.82 86.0923Z" fill="#F6F8F9"/>
<path opacity="0.09" d="M121.503 17.3911C115.391 16.0142 109.045 16.0213 102.936 17.412C96.8266 18.8026 91.1113 21.5412 86.2136 25.4244C81.3159 29.3077 77.3616 34.236 74.644 39.8438C71.9264 45.4516 70.5153 51.595 70.5153 57.8182C70.5153 64.0414 71.9264 70.1848 74.644 75.7926C77.3616 81.4004 81.3159 86.3287 86.2136 90.212C91.1113 94.0952 96.8266 96.8338 102.936 98.2244C109.045 99.6151 115.391 99.6222 121.503 98.2453C112.275 96.1596 104.035 91.0233 98.132 83.6783C92.2293 76.3332 89.0144 67.2151 89.0144 57.8182C89.0144 48.4213 92.2293 39.3032 98.132 31.9581C104.035 24.6131 112.275 19.4768 121.503 17.3911Z" fill="#1C9B83"/>
<path d="M111.74 58.9091C112.027 58.9091 112.303 58.7737 112.507 58.5325C112.71 58.2914 112.824 57.9644 112.824 57.6234V28.5585C112.824 28.2175 112.71 27.8905 112.507 27.6494C112.303 27.4082 112.027 27.2728 111.74 27.2728C111.452 27.2728 111.176 27.4082 110.973 27.6494C110.769 27.8905 110.655 28.2175 110.655 28.5585V57.6105C110.653 57.7804 110.68 57.949 110.734 58.1065C110.788 58.264 110.868 58.4072 110.969 58.528C111.07 58.6488 111.19 58.7446 111.322 58.81C111.454 58.8755 111.596 58.9091 111.74 58.9091Z" fill="#FFB448"/>
<path d="M123.438 78.5454C123.669 78.5427 123.895 78.4828 124.097 78.3715C124.248 78.2862 124.381 78.1723 124.487 78.0363C124.593 77.9003 124.671 77.745 124.715 77.5795C124.759 77.414 124.769 77.2415 124.745 77.0721C124.72 76.9028 124.661 76.7399 124.571 76.5931L113.13 57.3789C112.955 57.0807 112.667 56.8626 112.327 56.7725C111.988 56.6825 111.626 56.7279 111.321 56.8988C111.016 57.0697 110.793 57.3521 110.701 57.6838C110.609 58.0155 110.655 58.3693 110.83 58.6675L122.284 77.9011C122.401 78.0987 122.569 78.2625 122.772 78.3757C122.974 78.4889 123.204 78.5475 123.438 78.5454Z" fill="#FFB448"/>
<path d="M108.485 58.3636C108.485 59.1191 108.708 59.8575 109.125 60.4856C109.543 61.1136 110.136 61.603 110.831 61.8918C111.525 62.1806 112.289 62.2558 113.025 62.1079C113.762 61.96 114.439 61.5957 114.969 61.061C115.5 60.5263 115.861 59.8454 116.007 59.1043C116.153 58.3631 116.076 57.5952 115.788 56.8977C115.5 56.2001 115.012 55.6043 114.386 55.1856C113.761 54.7668 113.026 54.5441 112.275 54.5454C111.269 54.5472 110.305 54.9503 109.595 55.6662C108.884 56.382 108.485 57.3521 108.485 58.3636Z" fill="#FFC444"/>
<path d="M112.282 24C112.426 24 112.564 23.9436 112.666 23.8432C112.767 23.7428 112.824 23.6066 112.824 23.4646V20.1718C112.824 20.0298 112.767 19.8936 112.666 19.7932C112.564 19.6928 112.426 19.6364 112.282 19.6364C112.138 19.6364 112 19.6928 111.898 19.7932C111.797 19.8936 111.74 20.0298 111.74 20.1718V23.4646C111.74 23.6066 111.797 23.7428 111.898 23.8432C112 23.9436 112.138 24 112.282 24Z" fill="#65C1B0"/>
<path d="M129.527 28.3636C129.603 28.3634 129.677 28.3353 129.742 28.282C129.807 28.2287 129.861 28.1522 129.898 28.0603L131.21 24.8966C131.267 24.7586 131.282 24.595 131.252 24.4416C131.222 24.2883 131.149 24.1578 131.051 24.079C130.952 24.0001 130.834 23.9793 130.724 24.0211C130.615 24.0629 130.521 24.164 130.465 24.302L129.156 27.4657C129.128 27.5338 129.109 27.6092 129.101 27.6876C129.093 27.766 129.097 27.8458 129.112 27.9222C129.126 27.9987 129.152 28.0702 129.187 28.1327C129.221 28.1953 129.265 28.2475 129.314 28.2863C129.379 28.3377 129.453 28.3643 129.527 28.3636Z" fill="#65C1B0"/>
<path d="M142.57 41.4541C142.647 41.4548 142.723 41.426 142.791 41.3704L145.145 39.3939C145.196 39.3516 145.241 39.2952 145.277 39.2278C145.312 39.1605 145.339 39.0835 145.354 39.0013C145.37 38.9191 145.374 38.8333 145.366 38.7488C145.359 38.6642 145.34 38.5826 145.311 38.5087C145.282 38.4347 145.243 38.3698 145.197 38.3176C145.151 38.2654 145.098 38.227 145.041 38.2046C144.985 38.1822 144.926 38.1762 144.868 38.1869C144.81 38.1977 144.753 38.225 144.703 38.2672L142.348 40.2437C142.26 40.3126 142.191 40.4228 142.151 40.5563C142.112 40.6899 142.105 40.8389 142.131 40.9792C142.157 41.1195 142.215 41.2428 142.295 41.3291C142.376 41.4153 142.474 41.4593 142.574 41.4541H142.57Z" fill="#65C1B0"/>
<path d="M146.036 58.9091H150.128C150.305 58.9091 150.474 58.8516 150.599 58.7493C150.724 58.647 150.794 58.5083 150.794 58.3636C150.794 58.219 150.724 58.0802 150.599 57.9779C150.474 57.8756 150.305 57.8182 150.128 57.8182H146.036C145.86 57.8182 145.69 57.8756 145.565 57.9779C145.44 58.0802 145.37 58.219 145.37 58.3636C145.37 58.5083 145.44 58.647 145.565 58.7493C145.69 58.8516 145.86 58.9091 146.036 58.9091Z" fill="#65C1B0"/>
<path d="M144.916 77.4544C145.015 77.4569 145.113 77.4269 145.193 77.3691C145.272 77.3114 145.329 77.2294 145.355 77.1363C145.381 77.0432 145.373 76.9445 145.334 76.8561C145.294 76.7677 145.225 76.6948 145.137 76.6491L142.783 75.3296C142.68 75.2728 142.558 75.2579 142.444 75.288C142.33 75.3181 142.233 75.3909 142.174 75.4903C142.115 75.5897 142.1 75.7076 142.131 75.8181C142.162 75.9285 142.237 76.0225 142.34 76.0793L144.695 77.3945C144.762 77.433 144.838 77.4537 144.916 77.4544Z" fill="#65C1B0"/>
<path d="M130.833 91.6363C130.909 91.6376 130.984 91.6176 131.05 91.5783C131.099 91.5492 131.143 91.51 131.177 91.4631C131.212 91.4161 131.238 91.3624 131.252 91.3051C131.267 91.2477 131.271 91.1879 131.263 91.129C131.255 91.0702 131.236 91.0136 131.208 90.9625L129.895 88.5883C129.867 88.5373 129.83 88.4926 129.786 88.4567C129.741 88.4208 129.69 88.3945 129.636 88.3791C129.582 88.3638 129.525 88.3598 129.47 88.3674C129.414 88.3749 129.36 88.3939 129.312 88.4232C129.263 88.4525 129.22 88.4916 129.186 88.5381C129.152 88.5847 129.127 88.6379 129.112 88.6947C129.097 88.7515 129.093 88.8107 129.101 88.869C129.108 88.9273 129.126 88.9836 129.154 89.0346L130.462 91.4087C130.499 91.4777 130.553 91.5351 130.618 91.575C130.683 91.615 130.757 91.6362 130.833 91.6363Z" fill="#65C1B0"/>
<path d="M112.282 97.091C112.426 97.091 112.564 97.0204 112.666 96.8947C112.767 96.769 112.824 96.5986 112.824 96.4209V92.3065C112.824 92.1288 112.767 91.9583 112.666 91.8327C112.564 91.707 112.426 91.6364 112.282 91.6364C112.138 91.6364 112 91.707 111.898 91.8327C111.797 91.9583 111.74 92.1288 111.74 92.3065V96.4209C111.74 96.5986 111.797 96.769 111.898 96.8947C112 97.0204 112.138 97.091 112.282 97.091Z" fill="#65C1B0"/>
<path d="M92.8576 91.6319C92.9713 91.633 93.0834 91.6129 93.1822 91.5737C93.2811 91.5345 93.3632 91.4776 93.42 91.4089L95.382 89.0361C95.4667 88.9326 95.4891 88.8099 95.4441 88.6949C95.3992 88.5799 95.2906 88.482 95.1423 88.4229C94.994 88.3637 94.8181 88.3481 94.6533 88.3795C94.4885 88.4109 94.3484 88.4866 94.2636 88.5901L92.3017 90.9629C92.2438 91.0309 92.213 91.1085 92.2123 91.1876C92.2116 91.2667 92.241 91.3445 92.2976 91.413C92.3542 91.4816 92.4359 91.5384 92.5343 91.5776C92.6327 91.6169 92.7443 91.6371 92.8576 91.6364V91.6319Z" fill="#65C1B0"/>
<path d="M78.7051 77.4546C78.8095 77.4553 78.9121 77.4345 79.0009 77.3946L82.1482 76.0794C82.2855 76.0226 82.386 75.9286 82.4276 75.8181C82.4692 75.7076 82.4485 75.5897 82.37 75.4903C82.2916 75.3909 82.1618 75.3181 82.0093 75.288C81.8567 75.2579 81.6939 75.2728 81.5566 75.3296L78.4033 76.6492C78.3361 76.6775 78.2771 76.7152 78.23 76.76C78.1828 76.8049 78.1484 76.8561 78.1286 76.9106C78.1088 76.9651 78.1041 77.0219 78.1147 77.0778C78.1253 77.1336 78.151 77.1874 78.1904 77.2361C78.2417 77.3023 78.3165 77.3574 78.4069 77.3957C78.4973 77.4341 78.6002 77.4544 78.7051 77.4546Z" fill="#65C1B0"/>
<path d="M74.3029 58.9091H77.5761C77.7175 58.9091 77.8531 58.8516 77.9531 58.7493C78.0531 58.647 78.1092 58.5083 78.1092 58.3636C78.1092 58.219 78.0531 58.0802 77.9531 57.9779C77.8531 57.8756 77.7175 57.8182 77.5761 57.8182H74.3029C74.1615 57.8182 74.0259 57.8756 73.926 57.9779C73.826 58.0802 73.7698 58.219 73.7698 58.3636C73.7698 58.5083 73.826 58.647 73.926 58.7493C74.0259 58.8516 74.1615 58.9091 74.3029 58.9091Z" fill="#65C1B0"/>
<path d="M81.8436 41.4543C81.9762 41.458 82.1061 41.4128 82.2122 41.3261C82.3184 41.2394 82.3947 41.1162 82.4288 40.9763C82.4629 40.8365 82.4528 40.6882 82.4001 40.5553C82.3474 40.4225 82.2553 40.313 82.1386 40.2443L79.0008 38.2685C78.9335 38.2259 78.8591 38.1983 78.782 38.1872C78.7048 38.1762 78.6264 38.1819 78.5513 38.204C78.4762 38.2262 78.4059 38.2643 78.3443 38.3162C78.2828 38.3681 78.2313 38.4328 78.1927 38.5066C78.1526 38.5799 78.1262 38.6613 78.1151 38.7458C78.104 38.8304 78.1085 38.9166 78.1283 38.9992C78.1481 39.0819 78.1827 39.1595 78.2302 39.2274C78.2777 39.2953 78.3372 39.3522 78.4051 39.3948L81.5487 41.3706C81.6386 41.4262 81.7403 41.4551 81.8436 41.4543Z" fill="#65C1B0"/>
<path d="M94.8184 28.3636C94.9325 28.3653 95.0451 28.3384 95.1443 28.2859C95.2435 28.2333 95.3258 28.157 95.3825 28.0648C95.4392 27.9726 95.4683 27.8679 95.4668 27.7617C95.4652 27.6555 95.4331 27.5516 95.3737 27.4609L93.4141 24.3016C93.3294 24.1637 93.1894 24.0629 93.0248 24.0211C92.8602 23.9793 92.6845 24.0001 92.5364 24.0789C92.3883 24.1576 92.2798 24.2879 92.2349 24.441C92.1901 24.5941 92.2124 24.7576 92.297 24.8954L94.2567 28.0548C94.3118 28.1485 94.393 28.2266 94.4919 28.281C94.5908 28.3353 94.7035 28.3639 94.8184 28.3636Z" fill="#65C1B0"/>
</svg>
