<svg width="175" height="160" viewBox="0 0 175 160" fill="none" xmlns="http://www.w3.org/2000/svg">
<path d="M67.8312 147.96C70.2515 147.968 72.5761 147.003 74.295 145.278C76.0138 143.553 76.9866 141.207 76.9999 138.757L76.9233 17.1925C76.9059 14.7428 75.9304 12.4 74.2104 10.677C72.4904 8.9541 70.1662 7.99151 67.7467 8.00006L9.15556 8.03747C6.7336 8.02721 4.40608 8.98791 2.6815 10.7097C1.826 11.5615 1.14791 12.5783 0.687332 13.7001C0.226753 14.8219 -0.00695038 16.0258 3.05176e-05 17.2406L0.0765762 138.808C0.094017 141.257 1.06953 143.6 2.78951 145.323C4.50948 147.046 6.83372 148.008 9.25321 148L67.8312 147.96Z" fill="#1C9B83"/>
<path d="M8.73441 145L68.3513 144.96C69.219 144.965 70.0793 144.8 70.8831 144.474C71.6868 144.148 72.4183 143.668 73.0357 143.06C73.6532 142.451 74.1444 141.728 74.4814 140.931C74.8184 140.133 74.9946 139.277 74.9999 138.412L74.922 16.5371C74.9078 14.7896 74.1983 13.1193 72.9495 11.8935C71.7007 10.6677 70.0148 9.98664 68.2627 10.0002L8.64845 10.0377C7.78076 10.0321 6.92046 10.197 6.11669 10.523C5.31292 10.849 4.58144 11.3298 3.96402 11.9378C3.3466 12.5459 2.85535 13.2692 2.51834 14.0667C2.18133 14.8641 2.00515 15.7199 1.99988 16.5853L2.07778 138.46C2.09127 140.208 2.80009 141.878 4.04838 143.105C5.29668 144.331 6.98224 145.013 8.73441 145Z" fill="#F5F5F5"/>
<path opacity="0.2" d="M56.035 140H22.4142" stroke="#3B3F3E" stroke-width="3" stroke-miterlimit="10" stroke-linecap="square" stroke-linejoin="round"/>
<rect width="34.2635" height="41.7586" transform="matrix(-1 0 0 1 49.7241 85.6586)" fill="#ABD9D1"/>
<rect width="34.2635" height="41.7586" transform="matrix(-1 0 0 1 49.7241 29.9805)" fill="#ABD9D1"/>
<path d="M133.361 153.17C136.04 153.179 138.614 152.127 140.516 150.246C142.419 148.365 143.496 145.808 143.51 143.136L143.426 10.596C143.406 7.92515 142.326 5.37078 140.423 3.49229C138.519 1.6138 135.946 0.56429 133.268 0.573609L68.4107 0.614398C65.7297 0.603214 63.1533 1.65066 61.2443 3.52788C60.2973 4.45659 59.5467 5.56525 59.0369 6.7883C58.527 8.01135 58.2683 9.32394 58.2761 10.6484L58.3608 143.192C58.3801 145.863 59.4599 148.417 61.3638 150.295C63.2678 152.174 65.8406 153.223 68.5188 153.214L133.361 153.17Z" fill="#1C9B83"/>
<path d="M68.5222 150.3L133.359 150.257C134.302 150.263 135.238 150.084 136.112 149.729C136.986 149.374 137.782 148.852 138.453 148.19C139.125 147.529 139.659 146.742 140.025 145.875C140.392 145.008 140.584 144.077 140.589 143.136L140.505 10.5959C140.489 8.69551 139.718 6.87906 138.359 5.54595C137.001 4.21284 135.168 3.47223 133.262 3.48697L68.4287 3.52776C67.485 3.52162 66.5494 3.70095 65.6752 4.05551C64.8011 4.41006 64.0056 4.9329 63.3341 5.59415C62.6626 6.25539 62.1284 7.04209 61.7618 7.9093C61.3953 8.77652 61.2037 9.70724 61.198 10.6483L61.2827 143.189C61.2974 145.089 62.0683 146.906 63.4258 148.239C64.7834 149.573 66.6166 150.314 68.5222 150.3Z" fill="#F1F1F1"/>
<g opacity="0.36">
<path opacity="0.36" d="M119.582 144.444L83.396 144.468" stroke="#3B3F3E" stroke-width="3" stroke-miterlimit="10" stroke-linecap="square" stroke-linejoin="round"/>
</g>
<rect width="59.3969" height="15.6897" transform="matrix(-1 0 0 1 131.122 87.8001)" fill="#ABD9D1"/>
<rect width="59.3969" height="15.6897" transform="matrix(-1 0 0 1 131.122 59.9611)" fill="#ABD9D1"/>
<rect width="59.3969" height="15.6897" transform="matrix(-1 0 0 1 131.122 29.9805)" fill="#ABD9D1"/>
<rect width="59.3969" height="15.6897" transform="matrix(-1 0 0 1 131.122 111.335)" fill="#ABD9D1"/>
<path d="M103.398 42.28H165.28C168.301 42.28 170.75 44.7218 170.75 47.734V108.349C170.75 111.361 168.301 113.803 165.28 113.803H103.398C100.377 113.803 97.9286 111.361 97.9286 108.349V47.734C97.9286 44.7218 100.377 42.28 103.398 42.28Z" fill="#65C1B0" fill-opacity="0.5"/>
<path d="M168.178 109.587C169.074 109.588 169.962 109.412 170.789 109.07C171.617 108.728 172.369 108.227 173.003 107.596C173.636 106.964 174.139 106.214 174.482 105.388C174.824 104.563 175 103.678 175 102.784V43.7687C174.996 41.967 174.276 40.2403 172.997 38.9677C171.718 37.695 169.985 36.9803 168.178 36.9803H109.001C107.194 36.9811 105.462 37.696 104.183 38.9685C102.904 40.241 102.184 41.9672 102.179 43.7687V99.8475C102.179 102.431 103.208 104.908 105.04 106.735C106.871 108.561 109.355 109.587 111.946 109.587H168.178Z" fill="#F5F5F5"/>
<path d="M168.541 36.9803H108.65C106.937 36.9803 105.294 37.659 104.083 38.867C102.871 40.0751 102.191 41.7136 102.191 43.422V50.0123H175V43.4074C174.996 41.7015 174.314 40.0668 173.103 38.8619C171.892 37.657 170.251 36.9803 168.541 36.9803Z" fill="#1C9B83"/>
<path d="M160.036 42.2275V33.1927V42.2275Z" stroke="#1C9B83" stroke-width="3" stroke-miterlimit="10" stroke-linecap="round" stroke-linejoin="round"/>
<path d="M117.143 42.2275V33.1927V42.2275Z" stroke="#1C9B83" stroke-width="3" stroke-miterlimit="10" stroke-linecap="round" stroke-linejoin="round"/>
<path d="M143.568 60.7136H149.589C150.446 60.7136 151.141 61.4062 151.141 62.2606V68.2653C151.141 69.1197 150.446 69.8124 149.589 69.8124H143.568C142.711 69.8124 142.017 69.1197 142.017 68.2653V62.2606C142.017 61.4062 142.711 60.7136 143.568 60.7136Z" fill="#BFC8D6"/>
<path d="M128.456 60.7136H134.477C135.334 60.7136 136.028 61.4062 136.028 62.2606V68.2653C136.028 69.1197 135.334 69.8124 134.477 69.8124H128.456C127.599 69.8124 126.904 69.1197 126.904 68.2653V62.2606C126.904 61.4062 127.599 60.7136 128.456 60.7136Z" fill="#BFC8D6"/>
<path d="M158.678 74.4769H164.699C165.556 74.4769 166.25 75.1695 166.25 76.0239V82.0286C166.25 82.883 165.556 83.5757 164.699 83.5757H158.678C157.821 83.5757 157.126 82.883 157.126 82.0286V76.0239C157.126 75.1695 157.821 74.4769 158.678 74.4769Z" fill="#BFC8D6"/>
<path d="M158.678 59.9611H164.699C165.556 59.9611 166.25 60.6537 166.25 61.5081V67.5128C166.25 68.3672 165.556 69.0599 164.699 69.0599H158.678C157.821 69.0599 157.126 68.3672 157.126 67.5128V61.5081C157.126 60.6537 157.821 59.9611 158.678 59.9611Z" fill="#BFC8D6"/>
<path d="M143.568 74.4769H149.589C150.446 74.4769 151.141 75.1695 151.141 76.0239V82.0286C151.141 82.883 150.446 83.5757 149.589 83.5757H143.568C142.711 83.5757 142.017 82.883 142.017 82.0286V76.0239C142.017 75.1695 142.711 74.4769 143.568 74.4769Z" fill="#BFC8D6"/>
<path d="M128.456 74.4769H134.477C135.334 74.4769 136.028 75.1695 136.028 76.0239V82.0286C136.028 82.883 135.334 83.5757 134.477 83.5757H128.456C127.599 83.5757 126.904 82.883 126.904 82.0286V76.0239C126.904 75.1695 127.599 74.4769 128.456 74.4769Z" fill="#BFC8D6"/>
<path d="M158.678 88.2402H164.699C165.556 88.2402 166.25 88.9329 166.25 89.7873V95.792C166.25 96.6464 165.556 97.3391 164.699 97.3391H158.678C157.821 97.3391 157.126 96.6464 157.126 95.792V89.7873C157.126 88.9329 157.821 88.2402 158.678 88.2402Z" fill="#BFC8D6"/>
<path d="M143.568 88.2402H149.589C150.446 88.2402 151.141 88.9329 151.141 89.7873V95.792C151.141 96.6464 150.446 97.3391 149.589 97.3391H143.568C142.711 97.3391 142.017 96.6464 142.017 95.792V89.7873C142.017 88.9329 142.711 88.2402 143.568 88.2402Z" fill="#BFC8D6"/>
<path d="M128.456 88.2402H134.477C135.334 88.2402 136.028 88.9329 136.028 89.7873V95.792C136.028 96.6464 135.334 97.3391 134.477 97.3391H128.456C127.599 97.3391 126.904 96.6464 126.904 95.792V89.7873C126.904 88.9329 127.599 88.2402 128.456 88.2402Z" fill="#1C9B83"/>
<path d="M113.979 88.2402H120C120.857 88.2402 121.551 88.9329 121.551 89.7873V95.792C121.551 96.6464 120.857 97.3391 120 97.3391H113.979C113.122 97.3391 112.427 96.6464 112.427 95.792V89.7873C112.427 88.9329 113.122 88.2402 113.979 88.2402Z" fill="#BFC8D6"/>
<g style="mix-blend-mode:multiply" opacity="0.19">
<path d="M119.383 58.441H91.3372C90.5027 58.441 89.7024 58.7716 89.1124 59.36C88.5223 59.9485 88.1908 60.7466 88.1908 61.5788V85.4927C88.1908 86.3249 88.5223 87.123 89.1124 87.7115C89.7024 88.2999 90.5027 88.6305 91.3372 88.6305H110.888L118.294 93.8544L117.809 88.6305H119.383C120.218 88.6305 121.018 88.2999 121.608 87.7115C122.198 87.123 122.53 86.3249 122.53 85.4927V61.5788C122.53 60.7466 122.198 59.9485 121.608 59.36C121.018 58.7716 120.218 58.441 119.383 58.441Z" fill="#363636"/>
</g>
<path d="M124.785 52.8442H96.739C95.9045 52.8442 95.1042 53.1748 94.5141 53.7633C93.924 54.3517 93.5926 55.1498 93.5926 55.982V80.7146C93.5926 81.5468 93.924 82.3449 94.5141 82.9334C95.1042 83.5218 95.9045 83.8524 96.739 83.8524H116.535L125.007 90.7137L123.468 83.8524H124.8C125.213 83.8524 125.622 83.7713 126.004 83.6136C126.386 83.4559 126.733 83.2248 127.025 82.9334C127.317 82.642 127.549 82.2961 127.707 81.9154C127.865 81.5347 127.946 81.1267 127.946 80.7146V55.982C127.946 55.5687 127.864 55.1595 127.705 54.7779C127.546 54.3962 127.313 54.0497 127.02 53.7581C126.726 53.4665 126.377 53.2357 125.994 53.0789C125.61 52.922 125.2 52.8423 124.785 52.8442Z" fill="#FFC444"/>
<path d="M108.265 77.6496C108.262 77.9186 108.317 78.1851 108.426 78.4312C108.535 78.6774 108.695 78.8976 108.896 79.0772C109.287 79.456 109.812 79.6655 110.357 79.6599C110.872 79.6474 111.362 79.4377 111.727 79.0743C112.091 78.7109 112.301 78.2216 112.314 77.7079C112.323 77.4361 112.274 77.1655 112.17 76.9142C112.065 76.663 111.908 76.4369 111.709 76.2511C111.512 76.0607 111.278 75.9112 111.023 75.8112C110.767 75.7112 110.494 75.6627 110.219 75.6684C109.961 75.6641 109.705 75.7116 109.465 75.8082C109.226 75.9048 109.008 76.0484 108.825 76.2305C108.643 76.4127 108.499 76.6296 108.402 76.8684C108.305 77.1072 108.258 77.3629 108.262 77.6205L108.265 77.6496ZM108.352 58.4002C108.352 58.5692 108.471 59.9385 108.709 62.5082L109.661 72.8453C109.708 73.2881 109.895 73.5096 110.222 73.5096C110.564 73.5096 110.757 73.2881 110.806 72.8453L111.879 62.5082C112.095 60.3717 112.202 59.0023 112.2 58.4002C112.2 56.4191 111.531 55.4285 110.193 55.4285C108.989 55.4285 108.387 56.3996 108.387 58.342L108.352 58.4002Z" fill="white"/>
</svg>
